<svg width="32" height="32" viewBox="0 0 32 32" fill="none" xmlns="http://www.w3.org/2000/svg">
<path d="M16.0002 25.6667C10.6668 25.6667 6.3335 21.3333 6.3335 16C6.3335 10.6667 10.6668 6.33334 16.0002 6.33334C21.3335 6.33334 25.6668 10.6667 25.6668 16C25.6668 21.3333 21.3335 25.6667 16.0002 25.6667ZM16.0002 8.33334C11.7735 8.33334 8.3335 11.7733 8.3335 16C8.3335 20.2267 11.7735 23.6667 16.0002 23.6667C20.2268 23.6667 23.6668 20.2267 23.6668 16C23.6668 11.7733 20.2268 8.33334 16.0002 8.33334Z" fill="#F2F2F2"/>
<path d="M16.0002 30.6133C15.2668 30.6133 14.6668 30.0667 14.6668 29.3333V29.2267C14.6668 28.4933 15.2668 27.8933 16.0002 27.8933C16.7335 27.8933 17.3335 28.4933 17.3335 29.2267C17.3335 29.96 16.7335 30.6133 16.0002 30.6133ZM25.5202 26.8533C25.1735 26.8533 24.8402 26.72 24.5735 26.4667L24.4002 26.2933C23.8802 25.7733 23.8802 24.9333 24.4002 24.4133C24.9202 23.8933 25.7602 23.8933 26.2802 24.4133L26.4535 24.5867C26.9735 25.1067 26.9735 25.9467 26.4535 26.4667C26.2002 26.72 25.8668 26.8533 25.5202 26.8533ZM6.48016 26.8533C6.1335 26.8533 5.80016 26.72 5.5335 26.4667C5.0135 25.9467 5.0135 25.1067 5.5335 24.5867L5.70683 24.4133C6.22683 23.8933 7.06683 23.8933 7.58683 24.4133C8.10683 24.9333 8.10683 25.7733 7.58683 26.2933L7.4135 26.4667C7.16016 26.72 6.8135 26.8533 6.48016 26.8533ZM29.3335 17.3333H29.2268C28.4935 17.3333 27.8935 16.7333 27.8935 16C27.8935 15.2667 28.4935 14.6667 29.2268 14.6667C29.9602 14.6667 30.6135 15.2667 30.6135 16C30.6135 16.7333 30.0668 17.3333 29.3335 17.3333ZM2.7735 17.3333H2.66683C1.9335 17.3333 1.3335 16.7333 1.3335 16C1.3335 15.2667 1.9335 14.6667 2.66683 14.6667C3.40016 14.6667 4.0535 15.2667 4.0535 16C4.0535 16.7333 3.50683 17.3333 2.7735 17.3333ZM25.3468 7.98668C25.0002 7.98668 24.6668 7.85334 24.4002 7.60001C23.8802 7.08001 23.8802 6.24001 24.4002 5.72001L24.5735 5.54668C25.0935 5.02668 25.9335 5.02668 26.4535 5.54668C26.9735 6.06668 26.9735 6.90668 26.4535 7.42668L26.2802 7.60001C26.0268 7.85334 25.6935 7.98668 25.3468 7.98668ZM6.6535 7.98668C6.30683 7.98668 5.9735 7.85334 5.70683 7.60001L5.5335 7.41334C5.0135 6.89334 5.0135 6.05334 5.5335 5.53334C6.0535 5.01334 6.8935 5.01334 7.4135 5.53334L7.58683 5.70668C8.10683 6.22668 8.10683 7.06668 7.58683 7.58668C7.3335 7.85334 6.98683 7.98668 6.6535 7.98668ZM16.0002 4.05334C15.2668 4.05334 14.6668 3.50668 14.6668 2.77334V2.66668C14.6668 1.93334 15.2668 1.33334 16.0002 1.33334C16.7335 1.33334 17.3335 1.93334 17.3335 2.66668C17.3335 3.40001 16.7335 4.05334 16.0002 4.05334Z" fill="#F2F2F2"/>
</svg>
