<svg width="32" height="32" viewBox="0 0 32 32" fill="none" xmlns="http://www.w3.org/2000/svg">
<path d="M17.4135 30.2C18.0535 30.2 18.6801 30.04 19.2668 29.72C20.4401 29.0667 21.1468 27.88 21.1468 26.5467V19.48C21.1468 18.8133 21.5868 17.8133 22.0001 17.3067L26.9868 12.0267C27.8268 11.1867 28.4668 9.74667 28.4668 8.66667V5.6C28.4668 3.46667 26.8535 1.8 24.8001 1.8H7.20013C5.17346 1.8 3.53346 3.44 3.53346 5.46667V8.4C3.53346 9.8 4.37346 11.3867 5.16013 12.1733L10.9335 17.28C11.4935 17.7467 11.9335 18.7733 11.9335 19.6V25.3333C11.9335 26.52 12.6801 27.8933 13.6135 28.4533L15.4535 29.64C16.0535 30.0133 16.7335 30.2 17.4135 30.2ZM24.8001 3.8C25.7335 3.8 26.4668 4.58667 26.4668 5.6V8.66667C26.4668 9.16 26.0668 10.12 25.5601 10.6267L20.4801 15.9733C19.8001 16.8133 19.1335 18.2133 19.1335 19.4667V26.5333C19.1335 27.4 18.5335 27.8267 18.2801 27.96C17.7201 28.2667 17.0401 28.2667 16.5201 27.9467L14.6668 26.76C14.2935 26.5333 13.9201 25.8133 13.9201 25.3333V19.6C13.9201 18.1733 13.2268 16.6 12.2268 15.76L6.52013 10.7067C6.0668 10.2533 5.52013 9.17333 5.52013 8.38667V5.46667C5.52013 4.54667 6.26679 3.8 7.18679 3.8H24.8001Z" fill="#121211"/>
<path d="M24.0001 14.3333C24.1868 14.3333 24.3601 14.28 24.5334 14.1867C25.0001 13.8933 25.1468 13.2667 24.8534 12.8L18.2801 2.26667C17.9868 1.8 17.3734 1.65333 16.9068 1.94667C16.4401 2.24 16.2934 2.85334 16.5868 3.32L23.1601 13.8533C23.3468 14.16 23.6668 14.3333 24.0001 14.3333Z" fill="#121211"/>
</svg>
