<svg width="32" height="32" viewBox="0 0 32 32" fill="none" xmlns="http://www.w3.org/2000/svg">
<path d="M4 10.3333H28C28.5467 10.3333 29 9.88 29 9.33333C29 8.78667 28.5467 8.33333 28 8.33333H4C3.45333 8.33333 3 8.78667 3 9.33333C3 9.88 3.45333 10.3333 4 10.3333Z" fill="#121211"/>
<path d="M8 17H24C24.5467 17 25 16.5467 25 16C25 15.4533 24.5467 15 24 15H8C7.45333 15 7 15.4533 7 16C7 16.5467 7.45333 17 8 17Z" fill="#121211"/>
<path d="M13.3337 23.6667H18.667C19.2137 23.6667 19.667 23.2133 19.667 22.6667C19.667 22.12 19.2137 21.6667 18.667 21.6667H13.3337C12.787 21.6667 12.3337 22.12 12.3337 22.6667C12.3337 23.2133 12.787 23.6667 13.3337 23.6667Z" fill="#121211"/>
</svg>
