<svg width="152" height="16" viewBox="0 0 152 16" fill="none" xmlns="http://www.w3.org/2000/svg">
<path d="M151.707 8.70712C152.098 8.3166 152.098 7.68343 151.707 7.29291L145.343 0.928945C144.953 0.53842 144.319 0.53842 143.929 0.928945C143.538 1.31947 143.538 1.95263 143.929 2.34316L149.586 8.00001L143.929 13.6569C143.538 14.0474 143.538 14.6806 143.929 15.0711C144.319 15.4616 144.953 15.4616 145.343 15.0711L151.707 8.70712ZM5.03333 9C5.58562 9 6.03333 8.55229 6.03333 8C6.03333 7.44772 5.58562 7 5.03333 7L5.03333 9ZM10.0667 7C9.51438 7 9.06667 7.44772 9.06667 8C9.06667 8.55229 9.51438 9 10.0667 9L10.0667 7ZM20.1333 9C20.6856 9 21.1333 8.55229 21.1333 8C21.1333 7.44772 20.6856 7 20.1333 7L20.1333 9ZM25.1667 7C24.6144 7 24.1667 7.44772 24.1667 8C24.1667 8.55229 24.6144 9 25.1667 9L25.1667 7ZM35.2333 9C35.7856 9 36.2333 8.55229 36.2333 8C36.2333 7.44772 35.7856 7 35.2333 7L35.2333 9ZM40.2667 7C39.7144 7 39.2667 7.44772 39.2667 8C39.2667 8.55229 39.7144 9 40.2667 9L40.2667 7ZM50.3333 9C50.8856 9 51.3333 8.55229 51.3333 8C51.3333 7.44772 50.8856 7 50.3333 7L50.3333 9ZM55.3667 7C54.8144 7 54.3667 7.44772 54.3667 8C54.3667 8.55229 54.8144 9 55.3667 9L55.3667 7ZM65.4333 9.00001C65.9856 9.00001 66.4333 8.55229 66.4333 8.00001C66.4333 7.44772 65.9856 7.00001 65.4333 7.00001L65.4333 9.00001ZM70.4667 7.00001C69.9144 7.00001 69.4667 7.44772 69.4667 8.00001C69.4667 8.55229 69.9144 9.00001 70.4667 9.00001L70.4667 7.00001ZM80.5333 9.00001C81.0856 9.00001 81.5333 8.55229 81.5333 8.00001C81.5333 7.44772 81.0856 7.00001 80.5333 7.00001L80.5333 9.00001ZM85.5667 7.00001C85.0144 7.00001 84.5667 7.44772 84.5667 8.00001C84.5667 8.55229 85.0144 9.00001 85.5667 9.00001L85.5667 7.00001ZM95.6333 9.00001C96.1856 9.00001 96.6333 8.55229 96.6333 8.00001C96.6333 7.44772 96.1856 7.00001 95.6333 7.00001L95.6333 9.00001ZM100.667 7.00001C100.114 7.00001 99.6667 7.44772 99.6667 8.00001C99.6667 8.55229 100.114 9.00001 100.667 9.00001L100.667 7.00001ZM110.733 9.00001C111.286 9.00001 111.733 8.55229 111.733 8.00001C111.733 7.44772 111.286 7.00001 110.733 7.00001L110.733 9.00001ZM115.767 7.00001C115.214 7.00001 114.767 7.44773 114.767 8.00001C114.767 8.55229 115.214 9.00001 115.767 9.00001L115.767 7.00001ZM125.833 9.00001C126.386 9.00001 126.833 8.5523 126.833 8.00001C126.833 7.44773 126.386 7.00001 125.833 7.00001L125.833 9.00001ZM130.867 7.00001C130.314 7.00001 129.867 7.44773 129.867 8.00001C129.867 8.5523 130.314 9.00001 130.867 9.00001L130.867 7.00001ZM140.933 9.00001C141.486 9.00001 141.933 8.5523 141.933 8.00001C141.933 7.44773 141.486 7.00001 140.933 7.00001L140.933 9.00001ZM145.967 7.00001C145.414 7.00001 144.967 7.44773 144.967 8.00001C144.967 8.5523 145.414 9.00001 145.967 9.00001L145.967 7.00001ZM-8.74228e-08 9L5.03333 9L5.03333 7L8.74228e-08 7L-8.74228e-08 9ZM10.0667 9L20.1333 9L20.1333 7L10.0667 7L10.0667 9ZM25.1667 9L35.2333 9L35.2333 7L25.1667 7L25.1667 9ZM40.2667 9L50.3333 9L50.3333 7L40.2667 7L40.2667 9ZM55.3667 9L65.4333 9.00001L65.4333 7.00001L55.3667 7L55.3667 9ZM70.4667 9.00001L80.5333 9.00001L80.5333 7.00001L70.4667 7.00001L70.4667 9.00001ZM85.5667 9.00001L95.6333 9.00001L95.6333 7.00001L85.5667 7.00001L85.5667 9.00001ZM100.667 9.00001L110.733 9.00001L110.733 7.00001L100.667 7.00001L100.667 9.00001ZM115.767 9.00001L125.833 9.00001L125.833 7.00001L115.767 7.00001L115.767 9.00001ZM130.867 9.00001L140.933 9.00001L140.933 7.00001L130.867 7.00001L130.867 9.00001ZM145.967 9.00001L151 9.00001L151 7.00001L145.967 7.00001L145.967 9.00001ZM151.707 8.70712C152.098 8.3166 152.098 7.68343 151.707 7.29291L145.343 0.928945C144.953 0.53842 144.319 0.53842 143.929 0.928945C143.538 1.31947 143.538 1.95263 143.929 2.34316L149.586 8.00001L143.929 13.6569C143.538 14.0474 143.538 14.6806 143.929 15.0711C144.319 15.4616 144.953 15.4616 145.343 15.0711L151.707 8.70712ZM5.03333 9C5.58562 9 6.03333 8.55229 6.03333 8C6.03333 7.44772 5.58562 7 5.03333 7L5.03333 9ZM10.0667 7C9.51438 7 9.06667 7.44772 9.06667 8C9.06667 8.55229 9.51438 9 10.0667 9L10.0667 7ZM20.1333 9C20.6856 9 21.1333 8.55229 21.1333 8C21.1333 7.44772 20.6856 7 20.1333 7L20.1333 9ZM25.1667 7C24.6144 7 24.1667 7.44772 24.1667 8C24.1667 8.55229 24.6144 9 25.1667 9L25.1667 7ZM35.2333 9C35.7856 9 36.2333 8.55229 36.2333 8C36.2333 7.44772 35.7856 7 35.2333 7L35.2333 9ZM40.2667 7C39.7144 7 39.2667 7.44772 39.2667 8C39.2667 8.55229 39.7144 9 40.2667 9L40.2667 7ZM50.3333 9C50.8856 9 51.3333 8.55229 51.3333 8C51.3333 7.44772 50.8856 7 50.3333 7L50.3333 9ZM55.3667 7C54.8144 7 54.3667 7.44772 54.3667 8C54.3667 8.55229 54.8144 9 55.3667 9L55.3667 7ZM65.4333 9.00001C65.9856 9.00001 66.4333 8.55229 66.4333 8.00001C66.4333 7.44772 65.9856 7.00001 65.4333 7.00001L65.4333 9.00001ZM70.4667 7.00001C69.9144 7.00001 69.4667 7.44772 69.4667 8.00001C69.4667 8.55229 69.9144 9.00001 70.4667 9.00001L70.4667 7.00001ZM80.5333 9.00001C81.0856 9.00001 81.5333 8.55229 81.5333 8.00001C81.5333 7.44772 81.0856 7.00001 80.5333 7.00001L80.5333 9.00001ZM85.5667 7.00001C85.0144 7.00001 84.5667 7.44772 84.5667 8.00001C84.5667 8.55229 85.0144 9.00001 85.5667 9.00001L85.5667 7.00001ZM95.6333 9.00001C96.1856 9.00001 96.6333 8.55229 96.6333 8.00001C96.6333 7.44772 96.1856 7.00001 95.6333 7.00001L95.6333 9.00001ZM100.667 7.00001C100.114 7.00001 99.6667 7.44772 99.6667 8.00001C99.6667 8.55229 100.114 9.00001 100.667 9.00001L100.667 7.00001ZM110.733 9.00001C111.286 9.00001 111.733 8.55229 111.733 8.00001C111.733 7.44772 111.286 7.00001 110.733 7.00001L110.733 9.00001ZM115.767 7.00001C115.214 7.00001 114.767 7.44773 114.767 8.00001C114.767 8.55229 115.214 9.00001 115.767 9.00001L115.767 7.00001ZM125.833 9.00001C126.386 9.00001 126.833 8.5523 126.833 8.00001C126.833 7.44773 126.386 7.00001 125.833 7.00001L125.833 9.00001ZM130.867 7.00001C130.314 7.00001 129.867 7.44773 129.867 8.00001C129.867 8.5523 130.314 9.00001 130.867 9.00001L130.867 7.00001ZM140.933 9.00001C141.486 9.00001 141.933 8.5523 141.933 8.00001C141.933 7.44773 141.486 7.00001 140.933 7.00001L140.933 9.00001ZM145.967 7.00001C145.414 7.00001 144.967 7.44773 144.967 8.00001C144.967 8.5523 145.414 9.00001 145.967 9.00001L145.967 7.00001ZM-8.74228e-08 9L5.03333 9L5.03333 7L8.74228e-08 7L-8.74228e-08 9ZM10.0667 9L20.1333 9L20.1333 7L10.0667 7L10.0667 9ZM25.1667 9L35.2333 9L35.2333 7L25.1667 7L25.1667 9ZM40.2667 9L50.3333 9L50.3333 7L40.2667 7L40.2667 9ZM55.3667 9L65.4333 9.00001L65.4333 7.00001L55.3667 7L55.3667 9ZM70.4667 9.00001L80.5333 9.00001L80.5333 7.00001L70.4667 7.00001L70.4667 9.00001ZM85.5667 9.00001L95.6333 9.00001L95.6333 7.00001L85.5667 7.00001L85.5667 9.00001ZM100.667 9.00001L110.733 9.00001L110.733 7.00001L100.667 7.00001L100.667 9.00001ZM115.767 9.00001L125.833 9.00001L125.833 7.00001L115.767 7.00001L115.767 9.00001ZM130.867 9.00001L140.933 9.00001L140.933 7.00001L130.867 7.00001L130.867 9.00001ZM145.967 9.00001L151 9.00001L151 7.00001L145.967 7.00001L145.967 9.00001Z" fill="black"/>
</svg>
