<svg width="205" height="16" viewBox="0 0 205 16" fill="none" xmlns="http://www.w3.org/2000/svg">
<path d="M204.707 8.70712C205.098 8.3166 205.098 7.68344 204.707 7.29291L198.343 0.92895C197.953 0.538425 197.319 0.538425 196.929 0.928949C196.538 1.31947 196.538 1.95264 196.929 2.34316L202.586 8.00002L196.929 13.6569C196.538 14.0474 196.538 14.6806 196.929 15.0711C197.319 15.4616 197.953 15.4616 198.343 15.0711L204.707 8.70712ZM4.85714 9C5.40943 9 5.85714 8.55229 5.85714 8C5.85714 7.44772 5.40943 7 4.85714 7L4.85714 9ZM9.71429 7C9.162 7 8.71429 7.44772 8.71429 8C8.71429 8.55229 9.162 9 9.71429 9L9.71429 7ZM19.4286 9C19.9809 9 20.4286 8.55229 20.4286 8C20.4286 7.44772 19.9809 7 19.4286 7L19.4286 9ZM24.2857 7C23.7334 7 23.2857 7.44772 23.2857 8C23.2857 8.55229 23.7334 9 24.2857 9L24.2857 7ZM34 9C34.5523 9 35 8.55229 35 8C35 7.44772 34.5523 7 34 7L34 9ZM38.8571 7C38.3049 7 37.8571 7.44772 37.8571 8C37.8571 8.55229 38.3049 9 38.8571 9L38.8571 7ZM48.5714 9C49.1237 9 49.5714 8.55229 49.5714 8C49.5714 7.44772 49.1237 7 48.5714 7L48.5714 9ZM53.4286 7C52.8763 7 52.4286 7.44772 52.4286 8C52.4286 8.55229 52.8763 9 53.4286 9L53.4286 7ZM63.1429 9.00001C63.6951 9.00001 64.1429 8.55229 64.1429 8.00001C64.1429 7.44772 63.6951 7.00001 63.1429 7.00001L63.1429 9.00001ZM68 7.00001C67.4477 7.00001 67 7.44772 67 8.00001C67 8.55229 67.4477 9.00001 68 9.00001L68 7.00001ZM77.7143 9.00001C78.2666 9.00001 78.7143 8.55229 78.7143 8.00001C78.7143 7.44772 78.2666 7.00001 77.7143 7.00001L77.7143 9.00001ZM82.5714 7.00001C82.0191 7.00001 81.5714 7.44772 81.5714 8.00001C81.5714 8.55229 82.0191 9.00001 82.5714 9.00001L82.5714 7.00001ZM92.2857 9.00001C92.838 9.00001 93.2857 8.55229 93.2857 8.00001C93.2857 7.44772 92.838 7.00001 92.2857 7.00001L92.2857 9.00001ZM97.1429 7.00001C96.5906 7.00001 96.1429 7.44772 96.1429 8.00001C96.1429 8.55229 96.5906 9.00001 97.1429 9.00001L97.1429 7.00001ZM106.857 9.00001C107.409 9.00001 107.857 8.55229 107.857 8.00001C107.857 7.44772 107.409 7.00001 106.857 7.00001L106.857 9.00001ZM111.714 7.00001C111.162 7.00001 110.714 7.44772 110.714 8.00001C110.714 8.55229 111.162 9.00001 111.714 9.00001L111.714 7.00001ZM121.429 9.00001C121.981 9.00001 122.429 8.5523 122.429 8.00001C122.429 7.44773 121.981 7.00001 121.429 7.00001L121.429 9.00001ZM126.286 7.00001C125.733 7.00001 125.286 7.44773 125.286 8.00001C125.286 8.5523 125.733 9.00001 126.286 9.00001L126.286 7.00001ZM136 9.00001C136.552 9.00001 137 8.5523 137 8.00001C137 7.44773 136.552 7.00001 136 7.00001L136 9.00001ZM140.857 7.00001C140.305 7.00001 139.857 7.44773 139.857 8.00001C139.857 8.5523 140.305 9.00001 140.857 9.00001L140.857 7.00001ZM150.571 9.00001C151.124 9.00001 151.571 8.5523 151.571 8.00001C151.571 7.44773 151.124 7.00001 150.571 7.00001L150.571 9.00001ZM155.429 7.00001C154.876 7.00001 154.429 7.44773 154.429 8.00001C154.429 8.5523 154.876 9.00001 155.429 9.00001L155.429 7.00001ZM165.143 9.00001C165.695 9.00001 166.143 8.5523 166.143 8.00001C166.143 7.44773 165.695 7.00001 165.143 7.00001L165.143 9.00001ZM170 7.00001C169.448 7.00001 169 7.44773 169 8.00001C169 8.5523 169.448 9.00001 170 9.00001L170 7.00001ZM179.714 9.00002C180.267 9.00002 180.714 8.5523 180.714 8.00002C180.714 7.44773 180.267 7.00002 179.714 7.00002L179.714 9.00002ZM184.571 7.00002C184.019 7.00002 183.571 7.44773 183.571 8.00002C183.571 8.5523 184.019 9.00002 184.571 9.00002L184.571 7.00002ZM194.286 9.00002C194.838 9.00002 195.286 8.5523 195.286 8.00002C195.286 7.44773 194.838 7.00002 194.286 7.00002L194.286 9.00002ZM199.143 7.00002C198.591 7.00002 198.143 7.44773 198.143 8.00002C198.143 8.5523 198.591 9.00002 199.143 9.00002L199.143 7.00002ZM-8.74228e-08 9L4.85714 9L4.85714 7L8.74228e-08 7L-8.74228e-08 9ZM9.71429 9L19.4286 9L19.4286 7L9.71429 7L9.71429 9ZM24.2857 9L34 9L34 7L24.2857 7L24.2857 9ZM38.8571 9L48.5714 9L48.5714 7L38.8571 7L38.8571 9ZM53.4286 9L63.1429 9.00001L63.1429 7.00001L53.4286 7L53.4286 9ZM68 9.00001L77.7143 9.00001L77.7143 7.00001L68 7.00001L68 9.00001ZM82.5714 9.00001L92.2857 9.00001L92.2857 7.00001L82.5714 7.00001L82.5714 9.00001ZM97.1429 9.00001L106.857 9.00001L106.857 7.00001L97.1429 7.00001L97.1429 9.00001ZM111.714 9.00001L121.429 9.00001L121.429 7.00001L111.714 7.00001L111.714 9.00001ZM126.286 9.00001L136 9.00001L136 7.00001L126.286 7.00001L126.286 9.00001ZM140.857 9.00001L150.571 9.00001L150.571 7.00001L140.857 7.00001L140.857 9.00001ZM155.429 9.00001L165.143 9.00001L165.143 7.00001L155.429 7.00001L155.429 9.00001ZM170 9.00001L179.714 9.00002L179.714 7.00002L170 7.00001L170 9.00001ZM184.571 9.00002L194.286 9.00002L194.286 7.00002L184.571 7.00002L184.571 9.00002ZM199.143 9.00002L204 9.00002L204 7.00002L199.143 7.00002L199.143 9.00002ZM204.707 8.70712C205.098 8.3166 205.098 7.68344 204.707 7.29291L198.343 0.92895C197.953 0.538425 197.319 0.538425 196.929 0.928949C196.538 1.31947 196.538 1.95264 196.929 2.34316L202.586 8.00002L196.929 13.6569C196.538 14.0474 196.538 14.6806 196.929 15.0711C197.319 15.4616 197.953 15.4616 198.343 15.0711L204.707 8.70712ZM4.85714 9C5.40943 9 5.85714 8.55229 5.85714 8C5.85714 7.44772 5.40943 7 4.85714 7L4.85714 9ZM9.71429 7C9.162 7 8.71429 7.44772 8.71429 8C8.71429 8.55229 9.162 9 9.71429 9L9.71429 7ZM19.4286 9C19.9809 9 20.4286 8.55229 20.4286 8C20.4286 7.44772 19.9809 7 19.4286 7L19.4286 9ZM24.2857 7C23.7334 7 23.2857 7.44772 23.2857 8C23.2857 8.55229 23.7334 9 24.2857 9L24.2857 7ZM34 9C34.5523 9 35 8.55229 35 8C35 7.44772 34.5523 7 34 7L34 9ZM38.8571 7C38.3049 7 37.8571 7.44772 37.8571 8C37.8571 8.55229 38.3049 9 38.8571 9L38.8571 7ZM48.5714 9C49.1237 9 49.5714 8.55229 49.5714 8C49.5714 7.44772 49.1237 7 48.5714 7L48.5714 9ZM53.4286 7C52.8763 7 52.4286 7.44772 52.4286 8C52.4286 8.55229 52.8763 9 53.4286 9L53.4286 7ZM63.1429 9.00001C63.6951 9.00001 64.1429 8.55229 64.1429 8.00001C64.1429 7.44772 63.6951 7.00001 63.1429 7.00001L63.1429 9.00001ZM68 7.00001C67.4477 7.00001 67 7.44772 67 8.00001C67 8.55229 67.4477 9.00001 68 9.00001L68 7.00001ZM77.7143 9.00001C78.2666 9.00001 78.7143 8.55229 78.7143 8.00001C78.7143 7.44772 78.2666 7.00001 77.7143 7.00001L77.7143 9.00001ZM82.5714 7.00001C82.0191 7.00001 81.5714 7.44772 81.5714 8.00001C81.5714 8.55229 82.0191 9.00001 82.5714 9.00001L82.5714 7.00001ZM92.2857 9.00001C92.838 9.00001 93.2857 8.55229 93.2857 8.00001C93.2857 7.44772 92.838 7.00001 92.2857 7.00001L92.2857 9.00001ZM97.1429 7.00001C96.5906 7.00001 96.1429 7.44772 96.1429 8.00001C96.1429 8.55229 96.5906 9.00001 97.1429 9.00001L97.1429 7.00001ZM106.857 9.00001C107.409 9.00001 107.857 8.55229 107.857 8.00001C107.857 7.44772 107.409 7.00001 106.857 7.00001L106.857 9.00001ZM111.714 7.00001C111.162 7.00001 110.714 7.44772 110.714 8.00001C110.714 8.55229 111.162 9.00001 111.714 9.00001L111.714 7.00001ZM121.429 9.00001C121.981 9.00001 122.429 8.5523 122.429 8.00001C122.429 7.44773 121.981 7.00001 121.429 7.00001L121.429 9.00001ZM126.286 7.00001C125.733 7.00001 125.286 7.44773 125.286 8.00001C125.286 8.5523 125.733 9.00001 126.286 9.00001L126.286 7.00001ZM136 9.00001C136.552 9.00001 137 8.5523 137 8.00001C137 7.44773 136.552 7.00001 136 7.00001L136 9.00001ZM140.857 7.00001C140.305 7.00001 139.857 7.44773 139.857 8.00001C139.857 8.5523 140.305 9.00001 140.857 9.00001L140.857 7.00001ZM150.571 9.00001C151.124 9.00001 151.571 8.5523 151.571 8.00001C151.571 7.44773 151.124 7.00001 150.571 7.00001L150.571 9.00001ZM155.429 7.00001C154.876 7.00001 154.429 7.44773 154.429 8.00001C154.429 8.5523 154.876 9.00001 155.429 9.00001L155.429 7.00001ZM165.143 9.00001C165.695 9.00001 166.143 8.5523 166.143 8.00001C166.143 7.44773 165.695 7.00001 165.143 7.00001L165.143 9.00001ZM170 7.00001C169.448 7.00001 169 7.44773 169 8.00001C169 8.5523 169.448 9.00001 170 9.00001L170 7.00001ZM179.714 9.00002C180.267 9.00002 180.714 8.5523 180.714 8.00002C180.714 7.44773 180.267 7.00002 179.714 7.00002L179.714 9.00002ZM184.571 7.00002C184.019 7.00002 183.571 7.44773 183.571 8.00002C183.571 8.5523 184.019 9.00002 184.571 9.00002L184.571 7.00002ZM194.286 9.00002C194.838 9.00002 195.286 8.5523 195.286 8.00002C195.286 7.44773 194.838 7.00002 194.286 7.00002L194.286 9.00002ZM199.143 7.00002C198.591 7.00002 198.143 7.44773 198.143 8.00002C198.143 8.5523 198.591 9.00002 199.143 9.00002L199.143 7.00002ZM-8.74228e-08 9L4.85714 9L4.85714 7L8.74228e-08 7L-8.74228e-08 9ZM9.71429 9L19.4286 9L19.4286 7L9.71429 7L9.71429 9ZM24.2857 9L34 9L34 7L24.2857 7L24.2857 9ZM38.8571 9L48.5714 9L48.5714 7L38.8571 7L38.8571 9ZM53.4286 9L63.1429 9.00001L63.1429 7.00001L53.4286 7L53.4286 9ZM68 9.00001L77.7143 9.00001L77.7143 7.00001L68 7.00001L68 9.00001ZM82.5714 9.00001L92.2857 9.00001L92.2857 7.00001L82.5714 7.00001L82.5714 9.00001ZM97.1429 9.00001L106.857 9.00001L106.857 7.00001L97.1429 7.00001L97.1429 9.00001ZM111.714 9.00001L121.429 9.00001L121.429 7.00001L111.714 7.00001L111.714 9.00001ZM126.286 9.00001L136 9.00001L136 7.00001L126.286 7.00001L126.286 9.00001ZM140.857 9.00001L150.571 9.00001L150.571 7.00001L140.857 7.00001L140.857 9.00001ZM155.429 9.00001L165.143 9.00001L165.143 7.00001L155.429 7.00001L155.429 9.00001ZM170 9.00001L179.714 9.00002L179.714 7.00002L170 7.00001L170 9.00001ZM184.571 9.00002L194.286 9.00002L194.286 7.00002L184.571 7.00002L184.571 9.00002ZM199.143 9.00002L204 9.00002L204 7.00002L199.143 7.00002L199.143 9.00002Z" fill="black"/>
</svg>
