<svg width="28" height="28" viewBox="0 0 28 28" fill="none" xmlns="http://www.w3.org/2000/svg">
<path d="M19.2737 6.59167L15.657 3.79167C15.1903 3.32501 14.1403 3.09167 13.4403 3.09167H9.00701C7.60701 3.09167 6.09034 4.14167 5.74034 5.54167L2.94034 14.0583C2.35701 15.6917 3.40701 17.0917 5.15701 17.0917H9.82367C10.5237 17.0917 11.107 17.675 10.9903 18.4917L10.407 22.225C10.1737 23.275 10.8737 24.4417 11.9237 24.7917C12.857 25.1417 14.0237 24.675 14.4903 23.975L19.2737 16.8583" stroke="#F2F2F2" stroke-width="1.5" stroke-miterlimit="10"/>
<path d="M25.223 6.59167V18.025C25.223 19.6583 24.523 20.2417 22.8896 20.2417H21.723C20.0896 20.2417 19.3896 19.6583 19.3896 18.025V6.59167C19.3896 4.95833 20.0896 4.375 21.723 4.375H22.8896C24.523 4.375 25.223 4.95833 25.223 6.59167Z" stroke="#F2F2F2" stroke-width="1.5" stroke-linecap="round" stroke-linejoin="round"/>
</svg>
