<svg width="130" height="130" viewBox="0 0 130 130" fill="none" xmlns="http://www.w3.org/2000/svg">
<circle cx="65" cy="65" r="65" fill="#E8E8E8"/>
<path d="M65.0003 81.2167C58.887 81.2167 53.917 76.2467 53.917 70.1334C53.917 64.02 58.887 59.05 65.0003 59.05C71.1137 59.05 76.0837 64.02 76.0837 70.1334C76.0837 76.2467 71.1137 81.2167 65.0003 81.2167ZM65.0003 62.55C60.8237 62.55 57.417 65.9567 57.417 70.1334C57.417 74.31 60.8237 77.7167 65.0003 77.7167C69.177 77.7167 72.5837 74.31 72.5837 70.1334C72.5837 65.9567 69.177 62.55 65.0003 62.55Z" fill="#292D32"/>
<path d="M62.6664 74.2167C62.0831 74.2167 61.4997 73.9133 61.1731 73.3767C60.6831 72.5367 60.9397 71.4633 61.7797 70.9733L63.5531 69.9C63.7397 69.8067 63.8331 69.5967 63.8331 69.41V67.24C63.8331 66.2833 64.6264 65.49 65.5831 65.49C66.5397 65.49 67.3331 66.26 67.3331 67.2167V69.3867C67.3331 70.81 66.5631 72.1633 65.3497 72.8867L63.5764 73.96C63.2964 74.1467 62.9697 74.2167 62.6664 74.2167Z" fill="#292D32"/>
<path d="M74.3335 90.0833H55.6669C44.8869 90.0833 42.8802 85.0666 42.3669 80.19L40.6169 61.5C40.3602 59.05 40.2902 55.4333 42.7169 52.7266C44.8169 50.3933 48.2935 49.2733 53.3335 49.2733H76.6669C81.7302 49.2733 85.2069 50.4166 87.2835 52.7266C89.7102 55.4333 89.6402 59.05 89.3835 61.5233L87.6335 80.1666C87.1202 85.0666 85.1135 90.0833 74.3335 90.0833ZM53.3335 52.75C49.3902 52.75 46.6835 53.52 45.3069 55.06C44.1635 56.32 43.7902 58.2566 44.0935 61.15L45.8435 79.84C46.2402 83.5266 47.2435 86.5833 55.6669 86.5833H74.3335C82.7335 86.5833 83.7602 83.5266 84.1569 79.8166L85.9069 61.1733C86.2102 58.2566 85.8369 56.32 84.6935 55.06C83.3169 53.52 80.6102 52.75 76.6669 52.75H53.3335Z" fill="#292D32"/>
<path d="M74.3337 52.75C73.377 52.75 72.5837 51.9566 72.5837 51V49.1333C72.5837 44.98 72.5837 43.4166 66.867 43.4166H63.1337C57.417 43.4166 57.417 44.98 57.417 49.1333V51C57.417 51.9566 56.6237 52.75 55.667 52.75C54.7103 52.75 53.917 51.9566 53.917 51V49.1333C53.917 45.0266 53.917 39.9166 63.1337 39.9166H66.867C76.0837 39.9166 76.0837 45.0266 76.0837 49.1333V51C76.0837 51.9566 75.2903 52.75 74.3337 52.75Z" fill="#292D32"/>
<path d="M74.3568 70.5767C73.5635 70.5767 72.8635 70.0401 72.6535 69.2467C72.4201 68.3134 72.9801 67.3567 73.9135 67.1234C78.4635 65.9801 82.6868 63.9967 86.4668 61.2434C87.2368 60.6834 88.3335 60.8467 88.9168 61.6401C89.4768 62.4101 89.3135 63.5067 88.5201 64.0901C84.3668 67.1001 79.7468 69.2701 74.7535 70.5301C74.6368 70.5534 74.4968 70.5767 74.3568 70.5767Z" fill="#292D32"/>
<path d="M55.6664 70.6467C55.5264 70.6467 55.3864 70.6233 55.2464 70.6C50.5564 69.4567 46.1464 67.4733 42.1097 64.72C41.3164 64.1833 41.1064 63.0867 41.6431 62.2933C42.1797 61.5 43.2764 61.29 44.0697 61.8267C47.7564 64.3467 51.7697 66.1433 56.0631 67.1933C56.9964 67.4267 57.5797 68.36 57.3464 69.3167C57.1831 70.11 56.4597 70.6467 55.6664 70.6467Z" fill="#292D32"/>
</svg>
