<svg width="130" height="130" viewBox="0 0 130 130" fill="none" xmlns="http://www.w3.org/2000/svg">
<circle cx="65" cy="65" r="65" fill="#E8E8E8"/>
<path d="M73.8902 84.0866C73.2835 84.0866 72.6535 84.0633 71.9768 83.9933C70.7635 83.9 69.3868 83.6666 67.9635 83.3166L64.0435 82.3833C53.2868 79.84 49.7635 74.1466 52.2835 63.4133L54.5702 53.6366C55.0835 51.42 55.6902 49.6233 56.4368 48.13C60.4502 39.8466 68.1268 40.5933 73.5868 41.8766L77.4835 42.7866C82.9435 44.07 86.3968 46.1 88.3335 49.2033C90.2468 52.3066 90.5502 56.2966 89.2668 61.7566L86.9802 71.51C84.9735 80.05 80.7968 84.0866 73.8902 84.0866ZM67.6135 44.5833C63.7168 44.5833 61.2435 46.1933 59.5868 49.6466C58.9802 50.9066 58.4435 52.47 57.9768 54.43L55.6902 64.2066C53.6135 73.0266 56.0168 76.8766 64.8368 78.9766L68.7568 79.91C70.0168 80.2133 71.2068 80.4 72.2802 80.4933C78.6268 81.1233 81.7768 78.3466 83.5502 70.7166L85.8368 60.9633C86.8868 56.46 86.7468 53.31 85.3468 51.0466C83.9468 48.7833 81.1935 47.2433 76.6668 46.1933L72.7702 45.2833C70.8335 44.8166 69.1068 44.5833 67.6135 44.5833Z" fill="#292D32"/>
<path d="M56.4371 88.9167C50.4404 88.9167 46.6138 85.3233 44.1638 77.74L41.1771 68.5233C37.8638 58.2567 40.8271 52.47 51.0471 49.1567L54.7338 47.9667C55.9471 47.5933 56.8571 47.3367 57.6738 47.1967C58.3504 47.0567 59.0038 47.3133 59.4004 47.85C59.7971 48.3867 59.8671 49.0867 59.5871 49.6933C58.9804 50.93 58.4438 52.4933 58.0004 54.4533L55.7138 64.23C53.6371 73.05 56.0404 76.9 64.8604 79L68.7804 79.9333C70.0404 80.2367 71.2304 80.4233 72.3038 80.5167C73.0504 80.5867 73.6571 81.1 73.8671 81.8233C74.0538 82.5467 73.7738 83.2933 73.1671 83.7133C71.6271 84.7633 69.6904 85.65 67.2404 86.4433L63.5538 87.6567C60.8704 88.4967 58.5371 88.9167 56.4371 88.9167ZM55.1538 51.5133L52.1438 52.4933C43.8138 55.1767 41.8304 59.0967 44.5138 67.45L47.5004 76.6667C50.2071 84.9967 54.1271 87.0033 62.4571 84.32L66.1438 83.1067C66.2838 83.06 66.4004 83.0133 66.5404 82.9667L64.0671 82.3833C53.3104 79.84 49.7871 74.1467 52.3071 63.4133L54.5938 53.6367C54.7571 52.89 54.9438 52.1667 55.1538 51.5133Z" fill="#292D32"/>
<path d="M77.8102 61.5233C77.6702 61.5233 77.5302 61.5 77.3669 61.4766L66.0502 58.6066C65.1169 58.3733 64.5569 57.4166 64.7902 56.4833C65.0235 55.55 65.9802 54.99 66.9135 55.2233L78.2302 58.0933C79.1635 58.3266 79.7235 59.2833 79.4902 60.2166C79.3035 60.9866 78.5802 61.5233 77.8102 61.5233Z" fill="#292D32"/>
<path d="M70.973 69.41C70.833 69.41 70.693 69.3867 70.5296 69.3633L63.7396 67.6367C62.8063 67.4033 62.2463 66.4467 62.4796 65.5133C62.713 64.58 63.6696 64.02 64.603 64.2533L71.393 65.98C72.3263 66.2133 72.8863 67.17 72.653 68.1033C72.4663 68.8967 71.7663 69.41 70.973 69.41Z" fill="#292D32"/>
</svg>
