<svg width="28" height="28" viewBox="0 0 28 28" fill="none" xmlns="http://www.w3.org/2000/svg">
<path d="M8.72656 21.4083L12.3432 24.2083C12.8099 24.675 13.8599 24.9083 14.5599 24.9083H18.9932C20.3932 24.9083 21.9099 23.8583 22.2599 22.4583L25.0599 13.9416C25.6432 12.3083 24.5932 10.9083 22.8432 10.9083H18.1766C17.4766 10.9083 16.8932 10.325 17.0099 9.50832L17.5932 5.77498C17.8266 4.72498 17.1266 3.55832 16.0766 3.20832C15.1432 2.85832 13.9766 3.32498 13.5099 4.02498L8.72656 11.1416" stroke="#F2F2F2" stroke-width="1.5" stroke-miterlimit="10"/>
<path d="M2.77637 21.4084V9.97503C2.77637 8.3417 3.47637 7.75836 5.1097 7.75836H6.27637C7.9097 7.75836 8.6097 8.3417 8.6097 9.97503V21.4084C8.6097 23.0417 7.9097 23.625 6.27637 23.625H5.1097C3.47637 23.625 2.77637 23.0417 2.77637 21.4084Z" stroke="#F2F2F2" stroke-width="1.5" stroke-linecap="round" stroke-linejoin="round"/>
</svg>
