<svg width="24" height="24" viewBox="0 0 24 24" fill="none" xmlns="http://www.w3.org/2000/svg">
<path d="M4.93055 22.75C4.51055 22.75 4.12055 22.65 3.77055 22.45C3.00055 22 2.56055 21.09 2.56055 19.96V5.86C2.56055 3.32 4.63055 1.25 7.17055 1.25H16.8205C19.3605 1.25 21.4305 3.32 21.4305 5.86V19.95C21.4305 21.08 20.9905 21.99 20.2205 22.44C19.4505 22.89 18.4405 22.84 17.4505 22.29L12.5705 19.58C12.2805 19.42 11.7105 19.42 11.4205 19.58L6.54055 22.29C6.00055 22.59 5.45055 22.75 4.93055 22.75ZM7.18055 2.75C5.47055 2.75 4.07055 4.15 4.07055 5.86V19.95C4.07055 20.54 4.24055 20.98 4.54055 21.15C4.84055 21.32 5.31055 21.27 5.82055 20.98L10.7005 18.27C11.4405 17.86 12.5605 17.86 13.3005 18.27L18.1805 20.98C18.6905 21.27 19.1605 21.33 19.4605 21.15C19.7605 20.97 19.9305 20.53 19.9305 19.95V5.86C19.9305 4.15 18.5305 2.75 16.8205 2.75H7.18055V2.75Z" fill="#F2F2F2"/>
<path d="M11.0893 13.2499C10.8993 13.2499 10.7093 13.1799 10.5593 13.0299L9.0593 11.5299C8.7693 11.2399 8.7693 10.7599 9.0593 10.4699C9.3493 10.1799 9.8293 10.1799 10.1193 10.4699L11.0893 11.4399L14.5593 7.96994C14.8493 7.67994 15.3293 7.67994 15.6193 7.96994C15.9093 8.25994 15.9093 8.73994 15.6193 9.02994L11.6193 13.0299C11.4693 13.1799 11.2793 13.2499 11.0893 13.2499Z" fill="#F2F2F2"/>
</svg>
