<svg width="32" height="32" viewBox="0 0 32 32" fill="none" xmlns="http://www.w3.org/2000/svg">
<path d="M12.6663 15.2H19.333C19.8797 15.2 20.333 14.7467 20.333 14.2C20.333 13.6533 19.8797 13.2 19.333 13.2H12.6663C12.1197 13.2 11.6663 13.6533 11.6663 14.2C11.6663 14.7467 12.1197 15.2 12.6663 15.2Z" fill="white"/>
<path d="M16 18.6133C16.5467 18.6133 17 18.16 17 17.6133V10.9467C17 10.4 16.5467 9.94666 16 9.94666C15.4533 9.94666 15 10.4 15 10.9467V17.6133C15 18.16 15.4533 18.6133 16 18.6133Z" fill="white"/>
<path d="M6.57324 30.3333C7.25324 30.3333 7.99991 30.1333 8.71991 29.72L15.2266 26.1067C15.6132 25.8933 16.3732 25.8933 16.7599 26.1067L23.2666 29.72C24.5866 30.4533 25.9332 30.5333 26.9599 29.92C27.9866 29.32 28.5732 28.1067 28.5732 26.6V7.81332C28.5732 4.42666 25.8132 1.66666 22.4266 1.66666H9.55991C6.17324 1.66666 3.41324 4.42666 3.41324 7.81332V26.6C3.41324 28.1067 3.99991 29.32 5.02658 29.92C5.49324 30.2 6.02657 30.3333 6.57324 30.3333ZM15.9999 23.9467C15.3732 23.9467 14.7599 24.08 14.2666 24.36L7.75991 27.9733C7.07991 28.36 6.45324 28.44 6.05324 28.2C5.65324 27.96 5.42657 27.3867 5.42657 26.6V7.81332C5.42657 5.53332 7.29324 3.66666 9.57324 3.66666H22.4266C24.7066 3.66666 26.5732 5.53332 26.5732 7.81332V26.6C26.5732 27.3867 26.3466 27.9733 25.9466 28.2C25.5466 28.4267 24.9199 28.36 24.2399 27.9733L17.7332 24.36C17.2399 24.08 16.6266 23.9467 15.9999 23.9467Z" fill="white"/>
</svg>
