<svg width="32" height="32" viewBox="0 0 32 32" fill="none" xmlns="http://www.w3.org/2000/svg">
<path d="M4.66699 25C4.12033 25 3.66699 24.5467 3.66699 24V9.33333C3.66699 3.45333 5.45366 1.66666 11.3337 1.66666H20.667C26.547 1.66666 28.3337 3.45333 28.3337 9.33333V22.6667C28.3337 22.88 28.3337 23.08 28.3203 23.2933C28.2803 23.84 27.787 24.2667 27.2537 24.2267C26.707 24.1867 26.2803 23.7067 26.3203 23.16C26.3337 23 26.3337 22.8267 26.3337 22.6667V9.33333C26.3337 4.57333 25.4403 3.66666 20.667 3.66666H11.3337C6.56033 3.66666 5.66699 4.57333 5.66699 9.33333V24C5.66699 24.5467 5.21366 25 4.66699 25Z" fill="#121211"/>
<path d="M22.667 30.3333H9.33366C6.21366 30.3333 3.66699 27.7867 3.66699 24.6667V23.8C3.66699 21.1467 5.82699 19 8.46699 19H27.3337C27.8803 19 28.3337 19.4533 28.3337 20V24.6667C28.3337 27.7867 25.787 30.3333 22.667 30.3333ZM8.46699 21C6.92033 21 5.66699 22.2533 5.66699 23.8V24.6667C5.66699 26.6933 7.30699 28.3333 9.33366 28.3333H22.667C24.6937 28.3333 26.3337 26.6933 26.3337 24.6667V21H8.46699Z" fill="#121211"/>
<path d="M21.3337 10.3333H10.667C10.1203 10.3333 9.66699 9.88 9.66699 9.33334C9.66699 8.78667 10.1203 8.33334 10.667 8.33334H21.3337C21.8803 8.33334 22.3337 8.78667 22.3337 9.33334C22.3337 9.88 21.8803 10.3333 21.3337 10.3333Z" fill="#121211"/>
<path d="M17.3337 15H10.667C10.1203 15 9.66699 14.5467 9.66699 14C9.66699 13.4533 10.1203 13 10.667 13H17.3337C17.8803 13 18.3337 13.4533 18.3337 14C18.3337 14.5467 17.8803 15 17.3337 15Z" fill="#121211"/>
</svg>
