<svg width="24" height="24" viewBox="0 0 24 24" fill="none" xmlns="http://www.w3.org/2000/svg">
<path d="M8.39 18.49V8.33001C8.39 7.93001 8.51 7.54001 8.73 7.21001L11.46 3.15001C11.89 2.50001 12.96 2.04001 13.87 2.38001C14.85 2.71001 15.5 3.81001 15.29 4.79001L14.77 8.06001C14.73 8.36001 14.81 8.63001 14.98 8.84001C15.15 9.03001 15.4 9.15001 15.67 9.15001H19.78C20.57 9.15001 21.25 9.47001 21.65 10.03C22.03 10.57 22.1 11.27 21.85 11.98L19.39 19.47C19.08 20.71 17.73 21.72 16.39 21.72H12.49C11.82 21.72 10.88 21.49 10.45 21.06L9.17 20.07C8.68 19.7 8.39 19.11 8.39 18.49Z" fill="#F2F2F2"/>
<path d="M5.21 6.38H4.18C2.63 6.38 2 6.98 2 8.46V18.52C2 20 2.63 20.6 4.18 20.6H5.21C6.76 20.6 7.39 20 7.39 18.52V8.46C7.39 6.98 6.76 6.38 5.21 6.38Z" fill="#F2F2F2"/>
</svg>
