<svg width="32" height="32" viewBox="0 0 32 32" fill="none" xmlns="http://www.w3.org/2000/svg">
<path d="M12.2124 15.4933C12.1724 15.4933 12.1458 15.4933 12.1058 15.4933C12.0391 15.48 11.9458 15.48 11.8658 15.4933C7.9991 15.3733 5.0791 12.3333 5.0791 8.58667C5.0791 4.77334 8.18577 1.66667 11.9991 1.66667C15.8124 1.66667 18.9191 4.77334 18.9191 8.58667C18.9058 12.3333 15.9724 15.3733 12.2524 15.4933C12.2391 15.4933 12.2258 15.4933 12.2124 15.4933ZM11.9991 3.66667C9.29243 3.66667 7.0791 5.88 7.0791 8.58667C7.0791 11.2533 9.1591 13.4 11.8124 13.4933C11.8924 13.48 12.0658 13.48 12.2391 13.4933C14.8524 13.3733 16.9058 11.2267 16.9191 8.58667C16.9191 5.88 14.7058 3.66667 11.9991 3.66667Z" fill="#121211"/>
<path d="M22.0532 15.6667C22.0132 15.6667 21.9732 15.6667 21.9332 15.6533C21.3865 15.7067 20.8265 15.32 20.7732 14.7733C20.7198 14.2267 21.0532 13.7333 21.5998 13.6667C21.7598 13.6533 21.9332 13.6533 22.0798 13.6533C24.0265 13.5467 25.5465 11.9467 25.5465 9.98666C25.5465 7.95999 23.9065 6.31999 21.8798 6.31999C21.3332 6.33333 20.8798 5.87999 20.8798 5.33333C20.8798 4.78666 21.3332 4.33333 21.8798 4.33333C24.9998 4.33333 27.5465 6.88 27.5465 10C27.5465 13.0667 25.1465 15.5467 22.0932 15.6667C22.0798 15.6667 22.0665 15.6667 22.0532 15.6667Z" fill="#121211"/>
<path d="M12.2261 30.0667C9.61281 30.0667 6.98615 29.4 4.99948 28.0667C3.14615 26.84 2.13281 25.16 2.13281 23.3333C2.13281 21.5067 3.14615 19.8133 4.99948 18.5733C8.99948 15.92 15.4795 15.92 19.4528 18.5733C21.2928 19.8 22.3195 21.48 22.3195 23.3067C22.3195 25.1333 21.3061 26.8267 19.4528 28.0667C17.4528 29.4 14.8395 30.0667 12.2261 30.0667ZM6.10615 20.2533C4.82615 21.1067 4.13281 22.2 4.13281 23.3467C4.13281 24.48 4.83948 25.5733 6.10615 26.4133C9.42615 28.64 15.0261 28.64 18.3461 26.4133C19.6261 25.56 20.3195 24.4667 20.3195 23.32C20.3195 22.1867 19.6128 21.0933 18.3461 20.2533C15.0261 18.04 9.42615 18.04 6.10615 20.2533Z" fill="#121211"/>
<path d="M24.4526 27.6667C23.9859 27.6667 23.5726 27.3467 23.4792 26.8667C23.3726 26.32 23.7192 25.8 24.2526 25.68C25.0926 25.5067 25.8659 25.1733 26.4659 24.7067C27.2259 24.1333 27.6392 23.4133 27.6392 22.6533C27.6392 21.8933 27.2259 21.1733 26.4792 20.6133C25.8926 20.16 25.1592 19.84 24.2926 19.64C23.7592 19.52 23.4126 18.9867 23.5326 18.44C23.6526 17.9067 24.1859 17.56 24.7326 17.68C25.8792 17.9333 26.8792 18.3867 27.6926 19.0133C28.9326 19.9467 29.6392 21.2667 29.6392 22.6533C29.6392 24.04 28.9192 25.36 27.6792 26.3067C26.8526 26.9467 25.8126 27.4133 24.6659 27.64C24.5859 27.6667 24.5192 27.6667 24.4526 27.6667Z" fill="#121211"/>
</svg>
