<svg width="32" height="32" viewBox="0 0 32 32" fill="none" xmlns="http://www.w3.org/2000/svg">
<path d="M20.3204 30.3333H11.6804C9.16042 30.3333 7.32041 29.28 6.61375 27.4667C5.88041 25.5733 6.56041 23.2267 8.32041 21.64L14.5071 16L8.32041 10.36C6.56041 8.77333 5.88041 6.42666 6.61375 4.53333C7.32041 2.70666 9.16042 1.66666 11.6804 1.66666H20.3204C22.8404 1.66666 24.6804 2.72 25.3871 4.53333C26.1204 6.42666 25.4404 8.77333 23.6804 10.36L17.4937 16L23.6937 21.64C25.4404 23.2267 26.1337 25.5733 25.4004 27.4667C24.6804 29.28 22.8404 30.3333 20.3204 30.3333ZM16.0004 17.3467L9.66708 23.1067C8.54708 24.1333 8.05375 25.6267 8.48042 26.7333C8.88042 27.76 10.0137 28.3333 11.6804 28.3333H20.3204C21.9871 28.3333 23.1204 27.7733 23.5204 26.7333C23.9471 25.6267 23.4671 24.1333 22.3337 23.1067L16.0004 17.3467ZM11.6804 3.66666C10.0137 3.66666 8.88042 4.22666 8.48042 5.26666C8.05375 6.37333 8.53375 7.86666 9.66708 8.89333L16.0004 14.6533L22.3337 8.89333C23.4537 7.86666 23.9471 6.37333 23.5204 5.26666C23.1204 4.24 21.9871 3.66666 20.3204 3.66666H11.6804Z" fill="#121211"/>
</svg>
