<svg width="32" height="32" viewBox="0 0 32 32" fill="none" xmlns="http://www.w3.org/2000/svg">
<path d="M16.7337 27.4533C15.6803 27.4533 14.5203 27.08 13.3603 26.3467L9.46699 23.9067C9.20033 23.7467 8.89366 23.6533 8.58699 23.6533H6.66699C3.44033 23.6533 1.66699 21.88 1.66699 18.6533V13.32C1.66699 10.0933 3.44033 8.32 6.66699 8.32H8.57366C8.88033 8.32 9.18699 8.22667 9.45366 8.06667L13.347 5.62666C15.2937 4.41333 17.187 4.18666 18.6803 5.01333C20.1737 5.84 20.987 7.56 20.987 9.86667V22.0933C20.987 24.3867 20.1603 26.12 18.6803 26.9467C18.0937 27.2933 17.427 27.4533 16.7337 27.4533ZM6.66699 10.3333C4.56033 10.3333 3.66699 11.2267 3.66699 13.3333V18.6667C3.66699 20.7733 4.56033 21.6667 6.66699 21.6667H8.57366C9.26699 21.6667 9.93366 21.8533 10.5203 22.2267L14.4137 24.6667C15.6937 25.4667 16.907 25.68 17.7203 25.2267C18.5337 24.7733 19.0003 23.64 19.0003 22.1333V9.88C19.0003 8.36 18.5337 7.22667 17.7203 6.78667C16.907 6.33333 15.6937 6.53333 14.4137 7.34667L10.507 9.77333C9.93366 10.1467 9.25366 10.3333 8.57366 10.3333H6.66699Z" fill="#121211"/>
<path d="M24.0004 22.3333C23.787 22.3333 23.587 22.2667 23.4004 22.1333C22.9604 21.8 22.867 21.1733 23.2004 20.7333C25.2937 17.9467 25.2937 14.0533 23.2004 11.2667C22.867 10.8267 22.9604 10.2 23.4004 9.86665C23.8404 9.53332 24.467 9.62665 24.8004 10.0667C27.4137 13.56 27.4137 18.44 24.8004 21.9333C24.6004 22.2 24.307 22.3333 24.0004 22.3333Z" fill="#121211"/>
<path d="M26.4398 25.6667C26.2265 25.6667 26.0265 25.6 25.8398 25.4667C25.3998 25.1333 25.3065 24.5067 25.6398 24.0667C29.1998 19.32 29.1998 12.68 25.6398 7.93334C25.3065 7.49334 25.3998 6.86667 25.8398 6.53334C26.2798 6.20001 26.9065 6.29334 27.2398 6.73334C31.3332 12.1867 31.3332 19.8133 27.2398 25.2667C27.0532 25.5333 26.7465 25.6667 26.4398 25.6667Z" fill="#121211"/>
</svg>
