<svg width="32" height="32" viewBox="0 0 32 32" fill="none" xmlns="http://www.w3.org/2000/svg">
<path d="M10.667 7.66667C10.1203 7.66667 9.66699 7.21334 9.66699 6.66667V2.66667C9.66699 2.12001 10.1203 1.66667 10.667 1.66667C11.2137 1.66667 11.667 2.12001 11.667 2.66667V6.66667C11.667 7.21334 11.2137 7.66667 10.667 7.66667Z" fill="#121211"/>
<path d="M21.333 7.66667C20.7863 7.66667 20.333 7.21334 20.333 6.66667V2.66667C20.333 2.12001 20.7863 1.66667 21.333 1.66667C21.8797 1.66667 22.333 2.12001 22.333 2.66667V6.66667C22.333 7.21334 21.8797 7.66667 21.333 7.66667Z" fill="#121211"/>
<path d="M11.3333 19.3333C10.9867 19.3333 10.64 19.1867 10.3867 18.9467C10.1467 18.6933 10 18.36 10 18C10 17.8267 10.04 17.6533 10.1067 17.4933C10.1733 17.3333 10.2667 17.1867 10.3867 17.0533C10.88 16.56 11.7733 16.56 12.28 17.0533C12.52 17.3067 12.6667 17.6533 12.6667 18C12.6667 18.08 12.6533 18.1734 12.64 18.2667C12.6267 18.3467 12.6 18.4267 12.56 18.5067C12.5333 18.5867 12.4933 18.6667 12.44 18.7467C12.3867 18.8133 12.3333 18.88 12.28 18.9467C12.0267 19.1867 11.68 19.3333 11.3333 19.3333Z" fill="#121211"/>
<path d="M16.0003 19.3333C15.827 19.3333 15.6537 19.2934 15.4937 19.2267C15.3203 19.16 15.187 19.0667 15.0537 18.9467C14.8137 18.6933 14.667 18.36 14.667 18C14.667 17.8267 14.707 17.6533 14.7737 17.4933C14.8403 17.3333 14.9337 17.1867 15.0537 17.0534C15.187 16.9334 15.3203 16.84 15.4937 16.7733C15.987 16.5733 16.5737 16.68 16.947 17.0534C17.187 17.3067 17.3337 17.6533 17.3337 18C17.3337 18.08 17.3203 18.1734 17.307 18.2667C17.2937 18.3467 17.267 18.4267 17.227 18.5067C17.2003 18.5867 17.1603 18.6667 17.107 18.7467C17.067 18.8133 17.0003 18.88 16.947 18.9467C16.6937 19.1867 16.347 19.3333 16.0003 19.3333Z" fill="#121211"/>
<path d="M11.3333 24C11.16 24 10.9867 23.9601 10.8267 23.8934C10.6533 23.8267 10.5067 23.7334 10.3867 23.6134C10.2667 23.4934 10.1733 23.3467 10.1067 23.1734C10.04 23.0134 10 22.84 10 22.6667C10 22.4934 10.04 22.32 10.1067 22.16C10.1733 21.9867 10.2667 21.84 10.3867 21.72C10.5067 21.6 10.6533 21.5067 10.8267 21.44C11.1467 21.3067 11.52 21.2934 11.84 21.44C12.0133 21.5067 12.16 21.6 12.28 21.72C12.4 21.84 12.4933 21.9867 12.56 22.16C12.6267 22.32 12.6667 22.4934 12.6667 22.6667C12.6667 22.84 12.6267 23.0134 12.56 23.1734C12.4933 23.3467 12.4 23.4934 12.28 23.6134C12.16 23.7334 12.0133 23.8267 11.84 23.8934C11.68 23.9601 11.5067 24 11.3333 24Z" fill="#121211"/>
<path d="M27.3337 13.1199H4.66699C4.12033 13.1199 3.66699 12.6666 3.66699 12.1199C3.66699 11.5733 4.12033 11.1199 4.66699 11.1199H27.3337C27.8803 11.1199 28.3337 11.5733 28.3337 12.1199C28.3337 12.6666 27.8803 13.1199 27.3337 13.1199Z" fill="#121211"/>
<path d="M24.0003 31.6667C22.4403 31.6667 20.9603 31.1067 19.827 30.08C19.347 29.68 18.9203 29.1733 18.5737 28.5867C17.987 27.6267 17.667 26.4933 17.667 25.3333C17.667 21.84 20.507 19 24.0003 19C25.8137 19 27.547 19.7866 28.747 21.1466C29.7737 22.32 30.3337 23.8 30.3337 25.3333C30.3337 26.4933 30.0137 27.6267 29.4137 28.6C28.2937 30.4933 26.2137 31.6667 24.0003 31.6667ZM24.0003 21C21.6137 21 19.667 22.9467 19.667 25.3333C19.667 26.12 19.8803 26.8934 20.2937 27.56C20.5203 27.96 20.8137 28.2933 21.1337 28.5733C21.9337 29.2933 22.9337 29.6667 24.0003 29.6667C25.5337 29.6667 26.9203 28.88 27.707 27.5733C28.1203 26.8933 28.3337 26.1333 28.3337 25.3333C28.3337 24.2933 27.947 23.28 27.2537 22.4667C26.427 21.5333 25.2403 21 24.0003 21Z" fill="#121211"/>
<path d="M23.2395 27.6533C22.9862 27.6533 22.7328 27.56 22.5328 27.36L21.2129 26.04C20.8262 25.6533 20.8262 25.0133 21.2129 24.6266C21.5995 24.24 22.2395 24.24 22.6262 24.6266L23.2662 25.2667L25.3995 23.2933C25.7995 22.92 26.4395 22.9467 26.8128 23.3467C27.1862 23.7467 27.1595 24.3867 26.7595 24.76L23.9195 27.3867C23.7195 27.56 23.4795 27.6533 23.2395 27.6533Z" fill="#121211"/>
<path d="M20.4933 30.3333H10.6667C5.8 30.3333 3 27.5333 3 22.6667V11.3333C3 6.46667 5.8 3.66667 10.6667 3.66667H21.3333C26.2 3.66667 29 6.46667 29 11.3333V21.8133C29 22.2267 28.7467 22.6 28.3467 22.7467C27.96 22.8933 27.52 22.7867 27.24 22.4667C26.4133 21.5333 25.2267 21 23.9867 21C21.6 21 19.6533 22.9467 19.6533 25.3333C19.6533 26.12 19.8667 26.8934 20.28 27.56C20.5067 27.96 20.8 28.2933 21.12 28.5733C21.44 28.84 21.56 29.28 21.4133 29.68C21.2933 30.0667 20.92 30.3333 20.4933 30.3333ZM10.6667 5.66667C6.85333 5.66667 5 7.52 5 11.3333V22.6667C5 26.48 6.85333 28.3333 10.6667 28.3333H18.4267C17.9333 27.4267 17.6667 26.4 17.6667 25.3333C17.6667 21.84 20.5067 19 24 19C25.0533 19 26.0933 19.2667 27 19.76V11.3333C27 7.52 25.1467 5.66667 21.3333 5.66667H10.6667Z" fill="#121211"/>
</svg>
