<svg width="663" height="130" viewBox="0 0 663 130" fill="none" xmlns="http://www.w3.org/2000/svg">
<circle cx="285" cy="65" r="65" fill="#E8E8E8"/>
<path d="M285 81.2167C278.887 81.2167 273.917 76.2467 273.917 70.1334C273.917 64.02 278.887 59.05 285 59.05C291.114 59.05 296.084 64.02 296.084 70.1334C296.084 76.2467 291.114 81.2167 285 81.2167ZM285 62.55C280.824 62.55 277.417 65.9567 277.417 70.1334C277.417 74.31 280.824 77.7167 285 77.7167C289.177 77.7167 292.584 74.31 292.584 70.1334C292.584 65.9567 289.177 62.55 285 62.55Z" fill="#292D32"/>
<path d="M282.666 74.2167C282.083 74.2167 281.5 73.9133 281.173 73.3767C280.683 72.5367 280.94 71.4633 281.78 70.9733L283.553 69.9C283.74 69.8067 283.833 69.5967 283.833 69.41V67.24C283.833 66.2833 284.626 65.49 285.583 65.49C286.54 65.49 287.333 66.26 287.333 67.2167V69.3867C287.333 70.81 286.563 72.1633 285.35 72.8867L283.576 73.96C283.296 74.1467 282.97 74.2167 282.666 74.2167Z" fill="#292D32"/>
<path d="M294.334 90.0833H275.667C264.887 90.0833 262.88 85.0666 262.367 80.19L260.617 61.5C260.36 59.05 260.29 55.4333 262.717 52.7266C264.817 50.3933 268.294 49.2733 273.334 49.2733H296.667C301.73 49.2733 305.207 50.4166 307.284 52.7266C309.71 55.4333 309.64 59.05 309.384 61.5233L307.634 80.1666C307.12 85.0666 305.114 90.0833 294.334 90.0833ZM273.334 52.75C269.39 52.75 266.684 53.52 265.307 55.06C264.164 56.32 263.79 58.2566 264.094 61.15L265.844 79.84C266.24 83.5266 267.244 86.5833 275.667 86.5833H294.334C302.734 86.5833 303.76 83.5266 304.157 79.8166L305.907 61.1733C306.21 58.2566 305.837 56.32 304.694 55.06C303.317 53.52 300.61 52.75 296.667 52.75H273.334Z" fill="#292D32"/>
<path d="M294.334 52.75C293.377 52.75 292.584 51.9566 292.584 51V49.1333C292.584 44.98 292.584 43.4166 286.867 43.4166H283.134C277.417 43.4166 277.417 44.98 277.417 49.1333V51C277.417 51.9566 276.624 52.75 275.667 52.75C274.71 52.75 273.917 51.9566 273.917 51V49.1333C273.917 45.0266 273.917 39.9166 283.134 39.9166H286.867C296.084 39.9166 296.084 45.0266 296.084 49.1333V51C296.084 51.9566 295.29 52.75 294.334 52.75Z" fill="#292D32"/>
<path d="M294.357 70.5767C293.563 70.5767 292.863 70.0401 292.653 69.2467C292.42 68.3134 292.98 67.3567 293.913 67.1234C298.463 65.9801 302.687 63.9967 306.467 61.2434C307.237 60.6834 308.333 60.8467 308.917 61.6401C309.477 62.4101 309.313 63.5067 308.52 64.0901C304.367 67.1001 299.747 69.2701 294.753 70.5301C294.637 70.5534 294.497 70.5767 294.357 70.5767Z" fill="#292D32"/>
<path d="M275.666 70.6467C275.526 70.6467 275.386 70.6233 275.246 70.6C270.556 69.4567 266.146 67.4733 262.11 64.72C261.316 64.1833 261.106 63.0867 261.643 62.2933C262.18 61.5 263.276 61.29 264.07 61.8267C267.756 64.3467 271.77 66.1433 276.063 67.1933C276.996 67.4267 277.58 68.36 277.346 69.3167C277.183 70.11 276.46 70.6467 275.666 70.6467Z" fill="#292D32"/>
<path d="M204.707 65.7071C205.098 65.3166 205.098 64.6834 204.707 64.2929L198.343 57.9289C197.953 57.5384 197.319 57.5384 196.929 57.9289C196.538 58.3195 196.538 58.9526 196.929 59.3432L202.586 65L196.929 70.6569C196.538 71.0474 196.538 71.6806 196.929 72.0711C197.319 72.4616 197.953 72.4616 198.343 72.0711L204.707 65.7071ZM4.85714 66C5.40943 66 5.85714 65.5523 5.85714 65C5.85714 64.4477 5.40943 64 4.85714 64L4.85714 66ZM9.71429 64C9.162 64 8.71429 64.4477 8.71429 65C8.71429 65.5523 9.162 66 9.71429 66L9.71429 64ZM19.4286 66C19.9809 66 20.4286 65.5523 20.4286 65C20.4286 64.4477 19.9809 64 19.4286 64L19.4286 66ZM24.2857 64C23.7334 64 23.2857 64.4477 23.2857 65C23.2857 65.5523 23.7334 66 24.2857 66L24.2857 64ZM34 66C34.5523 66 35 65.5523 35 65C35 64.4477 34.5523 64 34 64L34 66ZM38.8571 64C38.3049 64 37.8571 64.4477 37.8571 65C37.8571 65.5523 38.3049 66 38.8571 66L38.8571 64ZM48.5714 66C49.1237 66 49.5714 65.5523 49.5714 65C49.5714 64.4477 49.1237 64 48.5714 64L48.5714 66ZM53.4286 64C52.8763 64 52.4286 64.4477 52.4286 65C52.4286 65.5523 52.8763 66 53.4286 66L53.4286 64ZM63.1429 66C63.6951 66 64.1429 65.5523 64.1429 65C64.1429 64.4477 63.6951 64 63.1429 64L63.1429 66ZM68 64C67.4477 64 67 64.4477 67 65C67 65.5523 67.4477 66 68 66L68 64ZM77.7143 66C78.2666 66 78.7143 65.5523 78.7143 65C78.7143 64.4477 78.2666 64 77.7143 64L77.7143 66ZM82.5714 64C82.0191 64 81.5714 64.4477 81.5714 65C81.5714 65.5523 82.0191 66 82.5714 66L82.5714 64ZM92.2857 66C92.838 66 93.2857 65.5523 93.2857 65C93.2857 64.4477 92.838 64 92.2857 64L92.2857 66ZM97.1429 64C96.5906 64 96.1429 64.4477 96.1429 65C96.1429 65.5523 96.5906 66 97.1429 66L97.1429 64ZM106.857 66C107.409 66 107.857 65.5523 107.857 65C107.857 64.4477 107.409 64 106.857 64L106.857 66ZM111.714 64C111.162 64 110.714 64.4477 110.714 65C110.714 65.5523 111.162 66 111.714 66L111.714 64ZM121.429 66C121.981 66 122.429 65.5523 122.429 65C122.429 64.4477 121.981 64 121.429 64L121.429 66ZM126.286 64C125.733 64 125.286 64.4477 125.286 65C125.286 65.5523 125.733 66 126.286 66L126.286 64ZM136 66C136.552 66 137 65.5523 137 65C137 64.4477 136.552 64 136 64L136 66ZM140.857 64C140.305 64 139.857 64.4477 139.857 65C139.857 65.5523 140.305 66 140.857 66L140.857 64ZM150.571 66C151.124 66 151.571 65.5523 151.571 65C151.571 64.4477 151.124 64 150.571 64L150.571 66ZM155.429 64C154.876 64 154.429 64.4477 154.429 65C154.429 65.5523 154.876 66 155.429 66L155.429 64ZM165.143 66C165.695 66 166.143 65.5523 166.143 65C166.143 64.4477 165.695 64 165.143 64L165.143 66ZM170 64C169.448 64 169 64.4477 169 65C169 65.5523 169.448 66 170 66L170 64ZM179.714 66C180.267 66 180.714 65.5523 180.714 65C180.714 64.4477 180.267 64 179.714 64L179.714 66ZM184.571 64C184.019 64 183.571 64.4477 183.571 65C183.571 65.5523 184.019 66 184.571 66L184.571 64ZM194.286 66C194.838 66 195.286 65.5523 195.286 65C195.286 64.4477 194.838 64 194.286 64L194.286 66ZM199.143 64C198.591 64 198.143 64.4477 198.143 65C198.143 65.5523 198.591 66 199.143 66L199.143 64ZM-8.74228e-08 66L4.85714 66L4.85714 64L8.74228e-08 64L-8.74228e-08 66ZM9.71429 66L19.4286 66L19.4286 64L9.71429 64L9.71429 66ZM24.2857 66L34 66L34 64L24.2857 64L24.2857 66ZM38.8571 66L48.5714 66L48.5714 64L38.8571 64L38.8571 66ZM53.4286 66L63.1429 66L63.1429 64L53.4286 64L53.4286 66ZM68 66L77.7143 66L77.7143 64L68 64L68 66ZM82.5714 66L92.2857 66L92.2857 64L82.5714 64L82.5714 66ZM97.1429 66L106.857 66L106.857 64L97.1429 64L97.1429 66ZM111.714 66L121.429 66L121.429 64L111.714 64L111.714 66ZM126.286 66L136 66L136 64L126.286 64L126.286 66ZM140.857 66L150.571 66L150.571 64L140.857 64L140.857 66ZM155.429 66L165.143 66L165.143 64L155.429 64L155.429 66ZM170 66L179.714 66L179.714 64L170 64L170 66ZM184.571 66L194.286 66L194.286 64L184.571 64L184.571 66ZM199.143 66L204 66L204 64L199.143 64L199.143 66ZM204.707 65.7071C205.098 65.3166 205.098 64.6834 204.707 64.2929L198.343 57.9289C197.953 57.5384 197.319 57.5384 196.929 57.9289C196.538 58.3195 196.538 58.9526 196.929 59.3432L202.586 65L196.929 70.6569C196.538 71.0474 196.538 71.6806 196.929 72.0711C197.319 72.4616 197.953 72.4616 198.343 72.0711L204.707 65.7071ZM4.85714 66C5.40943 66 5.85714 65.5523 5.85714 65C5.85714 64.4477 5.40943 64 4.85714 64L4.85714 66ZM9.71429 64C9.162 64 8.71429 64.4477 8.71429 65C8.71429 65.5523 9.162 66 9.71429 66L9.71429 64ZM19.4286 66C19.9809 66 20.4286 65.5523 20.4286 65C20.4286 64.4477 19.9809 64 19.4286 64L19.4286 66ZM24.2857 64C23.7334 64 23.2857 64.4477 23.2857 65C23.2857 65.5523 23.7334 66 24.2857 66L24.2857 64ZM34 66C34.5523 66 35 65.5523 35 65C35 64.4477 34.5523 64 34 64L34 66ZM38.8571 64C38.3049 64 37.8571 64.4477 37.8571 65C37.8571 65.5523 38.3049 66 38.8571 66L38.8571 64ZM48.5714 66C49.1237 66 49.5714 65.5523 49.5714 65C49.5714 64.4477 49.1237 64 48.5714 64L48.5714 66ZM53.4286 64C52.8763 64 52.4286 64.4477 52.4286 65C52.4286 65.5523 52.8763 66 53.4286 66L53.4286 64ZM63.1429 66C63.6951 66 64.1429 65.5523 64.1429 65C64.1429 64.4477 63.6951 64 63.1429 64L63.1429 66ZM68 64C67.4477 64 67 64.4477 67 65C67 65.5523 67.4477 66 68 66L68 64ZM77.7143 66C78.2666 66 78.7143 65.5523 78.7143 65C78.7143 64.4477 78.2666 64 77.7143 64L77.7143 66ZM82.5714 64C82.0191 64 81.5714 64.4477 81.5714 65C81.5714 65.5523 82.0191 66 82.5714 66L82.5714 64ZM92.2857 66C92.838 66 93.2857 65.5523 93.2857 65C93.2857 64.4477 92.838 64 92.2857 64L92.2857 66ZM97.1429 64C96.5906 64 96.1429 64.4477 96.1429 65C96.1429 65.5523 96.5906 66 97.1429 66L97.1429 64ZM106.857 66C107.409 66 107.857 65.5523 107.857 65C107.857 64.4477 107.409 64 106.857 64L106.857 66ZM111.714 64C111.162 64 110.714 64.4477 110.714 65C110.714 65.5523 111.162 66 111.714 66L111.714 64ZM121.429 66C121.981 66 122.429 65.5523 122.429 65C122.429 64.4477 121.981 64 121.429 64L121.429 66ZM126.286 64C125.733 64 125.286 64.4477 125.286 65C125.286 65.5523 125.733 66 126.286 66L126.286 64ZM136 66C136.552 66 137 65.5523 137 65C137 64.4477 136.552 64 136 64L136 66ZM140.857 64C140.305 64 139.857 64.4477 139.857 65C139.857 65.5523 140.305 66 140.857 66L140.857 64ZM150.571 66C151.124 66 151.571 65.5523 151.571 65C151.571 64.4477 151.124 64 150.571 64L150.571 66ZM155.429 64C154.876 64 154.429 64.4477 154.429 65C154.429 65.5523 154.876 66 155.429 66L155.429 64ZM165.143 66C165.695 66 166.143 65.5523 166.143 65C166.143 64.4477 165.695 64 165.143 64L165.143 66ZM170 64C169.448 64 169 64.4477 169 65C169 65.5523 169.448 66 170 66L170 64ZM179.714 66C180.267 66 180.714 65.5523 180.714 65C180.714 64.4477 180.267 64 179.714 64L179.714 66ZM184.571 64C184.019 64 183.571 64.4477 183.571 65C183.571 65.5523 184.019 66 184.571 66L184.571 64ZM194.286 66C194.838 66 195.286 65.5523 195.286 65C195.286 64.4477 194.838 64 194.286 64L194.286 66ZM199.143 64C198.591 64 198.143 64.4477 198.143 65C198.143 65.5523 198.591 66 199.143 66L199.143 64ZM-8.74228e-08 66L4.85714 66L4.85714 64L8.74228e-08 64L-8.74228e-08 66ZM9.71429 66L19.4286 66L19.4286 64L9.71429 64L9.71429 66ZM24.2857 66L34 66L34 64L24.2857 64L24.2857 66ZM38.8571 66L48.5714 66L48.5714 64L38.8571 64L38.8571 66ZM53.4286 66L63.1429 66L63.1429 64L53.4286 64L53.4286 66ZM68 66L77.7143 66L77.7143 64L68 64L68 66ZM82.5714 66L92.2857 66L92.2857 64L82.5714 64L82.5714 66ZM97.1429 66L106.857 66L106.857 64L97.1429 64L97.1429 66ZM111.714 66L121.429 66L121.429 64L111.714 64L111.714 66ZM126.286 66L136 66L136 64L126.286 64L126.286 66ZM140.857 66L150.571 66L150.571 64L140.857 64L140.857 66ZM155.429 66L165.143 66L165.143 64L155.429 64L155.429 66ZM170 66L179.714 66L179.714 64L170 64L170 66ZM184.571 66L194.286 66L194.286 64L184.571 64L184.571 66ZM199.143 66L204 66L204 64L199.143 64L199.143 66Z" fill="black"/>
<path d="M517.707 65.7071C518.098 65.3166 518.098 64.6834 517.707 64.2929L511.343 57.9289C510.953 57.5384 510.319 57.5384 509.929 57.9289C509.538 58.3195 509.538 58.9526 509.929 59.3432L515.586 65L509.929 70.6569C509.538 71.0474 509.538 71.6806 509.929 72.0711C510.319 72.4616 510.953 72.4616 511.343 72.0711L517.707 65.7071ZM371.033 66C371.586 66 372.033 65.5523 372.033 65C372.033 64.4477 371.586 64 371.033 64L371.033 66ZM376.067 64C375.514 64 375.067 64.4477 375.067 65C375.067 65.5523 375.514 66 376.067 66L376.067 64ZM386.133 66C386.686 66 387.133 65.5523 387.133 65C387.133 64.4477 386.686 64 386.133 64L386.133 66ZM391.167 64C390.614 64 390.167 64.4477 390.167 65C390.167 65.5523 390.614 66 391.167 66L391.167 64ZM401.233 66C401.786 66 402.233 65.5523 402.233 65C402.233 64.4477 401.786 64 401.233 64L401.233 66ZM406.267 64C405.714 64 405.267 64.4477 405.267 65C405.267 65.5523 405.714 66 406.267 66L406.267 64ZM416.333 66C416.886 66 417.333 65.5523 417.333 65C417.333 64.4477 416.886 64 416.333 64L416.333 66ZM421.367 64C420.814 64 420.367 64.4477 420.367 65C420.367 65.5523 420.814 66 421.367 66L421.367 64ZM431.433 66C431.986 66 432.433 65.5523 432.433 65C432.433 64.4477 431.986 64 431.433 64L431.433 66ZM436.467 64C435.914 64 435.467 64.4477 435.467 65C435.467 65.5523 435.914 66 436.467 66L436.467 64ZM446.533 66C447.086 66 447.533 65.5523 447.533 65C447.533 64.4477 447.086 64 446.533 64L446.533 66ZM451.567 64C451.014 64 450.567 64.4477 450.567 65C450.567 65.5523 451.014 66 451.567 66L451.567 64ZM461.633 66C462.186 66 462.633 65.5523 462.633 65C462.633 64.4477 462.186 64 461.633 64L461.633 66ZM466.667 64C466.114 64 465.667 64.4477 465.667 65C465.667 65.5523 466.114 66 466.667 66L466.667 64ZM476.733 66C477.286 66 477.733 65.5523 477.733 65C477.733 64.4477 477.286 64 476.733 64L476.733 66ZM481.767 64C481.214 64 480.767 64.4477 480.767 65C480.767 65.5523 481.214 66 481.767 66L481.767 64ZM491.833 66C492.386 66 492.833 65.5523 492.833 65C492.833 64.4477 492.386 64 491.833 64L491.833 66ZM496.867 64C496.314 64 495.867 64.4477 495.867 65C495.867 65.5523 496.314 66 496.867 66L496.867 64ZM506.933 66C507.486 66 507.933 65.5523 507.933 65C507.933 64.4477 507.486 64 506.933 64L506.933 66ZM511.967 64C511.414 64 510.967 64.4477 510.967 65C510.967 65.5523 511.414 66 511.967 66L511.967 64ZM366 66L371.033 66L371.033 64L366 64L366 66ZM376.067 66L386.133 66L386.133 64L376.067 64L376.067 66ZM391.167 66L401.233 66L401.233 64L391.167 64L391.167 66ZM406.267 66L416.333 66L416.333 64L406.267 64L406.267 66ZM421.367 66L431.433 66L431.433 64L421.367 64L421.367 66ZM436.467 66L446.533 66L446.533 64L436.467 64L436.467 66ZM451.567 66L461.633 66L461.633 64L451.567 64L451.567 66ZM466.667 66L476.733 66L476.733 64L466.667 64L466.667 66ZM481.767 66L491.833 66L491.833 64L481.767 64L481.767 66ZM496.867 66L506.933 66L506.933 64L496.867 64L496.867 66ZM511.967 66L517 66L517 64L511.967 64L511.967 66ZM517.707 65.7071C518.098 65.3166 518.098 64.6834 517.707 64.2929L511.343 57.9289C510.953 57.5384 510.319 57.5384 509.929 57.9289C509.538 58.3195 509.538 58.9526 509.929 59.3432L515.586 65L509.929 70.6569C509.538 71.0474 509.538 71.6806 509.929 72.0711C510.319 72.4616 510.953 72.4616 511.343 72.0711L517.707 65.7071ZM371.033 66C371.586 66 372.033 65.5523 372.033 65C372.033 64.4477 371.586 64 371.033 64L371.033 66ZM376.067 64C375.514 64 375.067 64.4477 375.067 65C375.067 65.5523 375.514 66 376.067 66L376.067 64ZM386.133 66C386.686 66 387.133 65.5523 387.133 65C387.133 64.4477 386.686 64 386.133 64L386.133 66ZM391.167 64C390.614 64 390.167 64.4477 390.167 65C390.167 65.5523 390.614 66 391.167 66L391.167 64ZM401.233 66C401.786 66 402.233 65.5523 402.233 65C402.233 64.4477 401.786 64 401.233 64L401.233 66ZM406.267 64C405.714 64 405.267 64.4477 405.267 65C405.267 65.5523 405.714 66 406.267 66L406.267 64ZM416.333 66C416.886 66 417.333 65.5523 417.333 65C417.333 64.4477 416.886 64 416.333 64L416.333 66ZM421.367 64C420.814 64 420.367 64.4477 420.367 65C420.367 65.5523 420.814 66 421.367 66L421.367 64ZM431.433 66C431.986 66 432.433 65.5523 432.433 65C432.433 64.4477 431.986 64 431.433 64L431.433 66ZM436.467 64C435.914 64 435.467 64.4477 435.467 65C435.467 65.5523 435.914 66 436.467 66L436.467 64ZM446.533 66C447.086 66 447.533 65.5523 447.533 65C447.533 64.4477 447.086 64 446.533 64L446.533 66ZM451.567 64C451.014 64 450.567 64.4477 450.567 65C450.567 65.5523 451.014 66 451.567 66L451.567 64ZM461.633 66C462.186 66 462.633 65.5523 462.633 65C462.633 64.4477 462.186 64 461.633 64L461.633 66ZM466.667 64C466.114 64 465.667 64.4477 465.667 65C465.667 65.5523 466.114 66 466.667 66L466.667 64ZM476.733 66C477.286 66 477.733 65.5523 477.733 65C477.733 64.4477 477.286 64 476.733 64L476.733 66ZM481.767 64C481.214 64 480.767 64.4477 480.767 65C480.767 65.5523 481.214 66 481.767 66L481.767 64ZM491.833 66C492.386 66 492.833 65.5523 492.833 65C492.833 64.4477 492.386 64 491.833 64L491.833 66ZM496.867 64C496.314 64 495.867 64.4477 495.867 65C495.867 65.5523 496.314 66 496.867 66L496.867 64ZM506.933 66C507.486 66 507.933 65.5523 507.933 65C507.933 64.4477 507.486 64 506.933 64L506.933 66ZM511.967 64C511.414 64 510.967 64.4477 510.967 65C510.967 65.5523 511.414 66 511.967 66L511.967 64ZM366 66L371.033 66L371.033 64L366 64L366 66ZM376.067 66L386.133 66L386.133 64L376.067 64L376.067 66ZM391.167 66L401.233 66L401.233 64L391.167 64L391.167 66ZM406.267 66L416.333 66L416.333 64L406.267 64L406.267 66ZM421.367 66L431.433 66L431.433 64L421.367 64L421.367 66ZM436.467 66L446.533 66L446.533 64L436.467 64L436.467 66ZM451.567 66L461.633 66L461.633 64L451.567 64L451.567 66ZM466.667 66L476.733 66L476.733 64L466.667 64L466.667 66ZM481.767 66L491.833 66L491.833 64L481.767 64L481.767 66ZM496.867 66L506.933 66L506.933 64L496.867 64L496.867 66ZM511.967 66L517 66L517 64L511.967 64L511.967 66Z" fill="black"/>
<circle cx="598" cy="65" r="65" fill="#E8E8E8"/>
<path d="M606.89 84.0866C606.284 84.0866 605.653 84.0633 604.977 83.9933C603.763 83.9 602.387 83.6666 600.964 83.3166L597.044 82.3833C586.287 79.84 582.764 74.1466 585.284 63.4133L587.57 53.6366C588.084 51.42 588.69 49.6233 589.437 48.13C593.45 39.8466 601.127 40.5933 606.587 41.8766L610.484 42.7866C615.943 44.07 619.397 46.1 621.333 49.2033C623.247 52.3066 623.55 56.2966 622.267 61.7566L619.98 71.51C617.973 80.05 613.797 84.0866 606.89 84.0866ZM600.614 44.5833C596.717 44.5833 594.244 46.1933 592.587 49.6466C591.98 50.9066 591.444 52.47 590.977 54.43L588.69 64.2066C586.614 73.0266 589.017 76.8766 597.837 78.9766L601.757 79.91C603.017 80.2133 604.207 80.4 605.28 80.4933C611.627 81.1233 614.777 78.3466 616.55 70.7166L618.837 60.9633C619.887 56.46 619.747 53.31 618.347 51.0466C616.947 48.7833 614.193 47.2433 609.667 46.1933L605.77 45.2833C603.833 44.8166 602.107 44.5833 600.614 44.5833Z" fill="#292D32"/>
<path d="M589.437 88.9167C583.44 88.9167 579.614 85.3233 577.164 77.74L574.177 68.5233C570.864 58.2567 573.827 52.47 584.047 49.1567L587.734 47.9667C588.947 47.5933 589.857 47.3367 590.674 47.1967C591.35 47.0567 592.004 47.3133 592.4 47.85C592.797 48.3867 592.867 49.0867 592.587 49.6933C591.98 50.93 591.444 52.4933 591 54.4533L588.714 64.23C586.637 73.05 589.04 76.9 597.86 79L601.78 79.9333C603.04 80.2367 604.23 80.4233 605.304 80.5167C606.05 80.5867 606.657 81.1 606.867 81.8233C607.054 82.5467 606.774 83.2933 606.167 83.7133C604.627 84.7633 602.69 85.65 600.24 86.4433L596.554 87.6567C593.87 88.4967 591.537 88.9167 589.437 88.9167ZM588.154 51.5133L585.144 52.4933C576.814 55.1767 574.83 59.0967 577.514 67.45L580.5 76.6667C583.207 84.9967 587.127 87.0033 595.457 84.32L599.144 83.1067C599.284 83.06 599.4 83.0133 599.54 82.9667L597.067 82.3833C586.31 79.84 582.787 74.1467 585.307 63.4133L587.594 53.6367C587.757 52.89 587.944 52.1667 588.154 51.5133Z" fill="#292D32"/>
<path d="M610.81 61.5233C610.67 61.5233 610.53 61.5 610.367 61.4766L599.05 58.6066C598.117 58.3733 597.557 57.4166 597.79 56.4833C598.024 55.55 598.98 54.99 599.914 55.2233L611.23 58.0933C612.164 58.3266 612.724 59.2833 612.49 60.2166C612.304 60.9866 611.58 61.5233 610.81 61.5233Z" fill="#292D32"/>
<path d="M603.973 69.41C603.833 69.41 603.693 69.3867 603.53 69.3633L596.74 67.6367C595.806 67.4033 595.246 66.4467 595.48 65.5133C595.713 64.58 596.67 64.02 597.603 64.2533L604.393 65.98C605.326 66.2133 605.886 67.17 605.653 68.1033C605.466 68.8967 604.766 69.41 603.973 69.41Z" fill="#292D32"/>
</svg>
