<svg width="24" height="24" viewBox="0 0 24 24" fill="none" xmlns="http://www.w3.org/2000/svg">
<path d="M8.69 15.02C9.27 15.02 9.9 14.83 10.53 14.44L11.85 13.64C11.91 13.6 12.09 13.6 12.15 13.64L13.47 14.44C14.55 15.1 15.61 15.2 16.46 14.72C17.29 14.25 17.75 13.31 17.75 12.08V5.03C17.75 2.59 16.42 1.25 14 1.25H10C7.58 1.25 6.25 2.59 6.25 5.03V12.08C6.25 13.32 6.71 14.26 7.54 14.72C7.89 14.92 8.28 15.02 8.69 15.02ZM12 12.11C11.67 12.11 11.34 12.19 11.07 12.35L9.75 13.15C9.16 13.51 8.62 13.6 8.28 13.41C7.95 13.22 7.76 12.73 7.76 12.07V5.03C7.76 3.43 8.43 2.75 10.01 2.75H14.01C15.59 2.75 16.26 3.43 16.26 5.03V12.08C16.26 12.74 16.07 13.23 15.74 13.42C15.4 13.61 14.86 13.52 14.27 13.16L12.95 12.36C12.66 12.19 12.33 12.11 12 12.11Z" fill="#121211"/>
<path d="M9 22.75H15C20.43 22.75 22.75 20.41 22.75 14.93V11.9C22.75 7.24001 21.07 4.88001 17.31 4.25001C16.91 4.18001 16.52 4.46001 16.45 4.87001C16.38 5.28001 16.66 5.66001 17.07 5.73001C20.08 6.23001 21.26 7.96001 21.26 11.9V14.93C21.26 19.54 19.57 21.25 15.01 21.25H9.01C4.45 21.25 2.76 19.54 2.76 14.93V11.9C2.76 7.90001 3.98 6.17001 7.12 5.70001C7.53 5.64001 7.81 5.26001 7.75 4.85001C7.69 4.44001 7.31 4.16001 6.9 4.22001C3 4.80001 1.26 7.16001 1.26 11.9V14.93C1.25 20.41 3.57 22.75 9 22.75Z" fill="#121211"/>
</svg>
