<svg width="24" height="24" viewBox="0 0 24 24" fill="none" xmlns="http://www.w3.org/2000/svg">
<path d="M12 22.7499C16 22.7499 19.25 19.8799 19.25 16.3499V12.6499C19.25 12.2399 18.91 11.8999 18.5 11.8999C18.09 11.8999 17.75 12.2399 17.75 12.6499C17.75 15.2699 15.28 17.2499 12 17.2499C8.72 17.2499 6.25 15.2699 6.25 12.6499C6.25 12.2399 5.91 11.8999 5.5 11.8999C5.09 11.8999 4.75 12.2399 4.75 12.6499V16.3499C4.75 19.8799 8 22.7499 12 22.7499ZM17.75 16.4599C17.68 19.1099 15.13 21.2499 12 21.2499C8.87 21.2499 6.32 19.1099 6.25 16.4599C7.55 17.8699 9.61 18.7499 12 18.7499C14.39 18.7499 16.44 17.8699 17.75 16.4599Z" fill="#121211"/>
<path d="M12 13.75C14.76 13.75 17.24 12.51 18.45 10.51C18.97 9.66 19.25 8.67 19.25 7.65C19.25 5.93 18.48 4.31 17.09 3.09C15.73 1.9 13.92 1.25 12 1.25C10.08 1.25 8.28 1.9 6.91 3.08C5.52 4.31 4.75 5.93 4.75 7.65C4.75 8.67 5.02999 9.65 5.54999 10.51C6.75999 12.51 9.24 13.75 12 13.75ZM12 2.75C13.56 2.75 15.02 3.27 16.11 4.23C17.17 5.15 17.75 6.37 17.75 7.65C17.75 8.4 17.55 9.1 17.17 9.73C16.22 11.29 14.24 12.25 12 12.25C9.76 12.25 7.77999 11.28 6.82999 9.73C6.43999 9.1 6.25 8.4 6.25 7.65C6.25 6.37 6.82999 5.15 7.89999 4.21C8.98999 3.27 10.44 2.75 12 2.75Z" fill="#121211"/>
<path d="M12 18.75C16.13 18.75 19.25 16.13 19.25 12.65V7.65C19.25 4.12 16 1.25 12 1.25C10.08 1.25 8.28 1.9 6.91 3.08C5.52 4.31 4.75 5.93 4.75 7.65V12.65C4.75 16.13 7.87 18.75 12 18.75ZM12 2.75C15.17 2.75 17.75 4.95 17.75 7.65V12.65C17.75 15.27 15.28 17.25 12 17.25C8.72 17.25 6.25 15.27 6.25 12.65V7.65C6.25 6.37 6.82999 5.15 7.89999 4.21C8.98999 3.27 10.44 2.75 12 2.75Z" fill="#121211"/>
</svg>
