<svg width="24" height="24" viewBox="0 0 24 24" fill="none" xmlns="http://www.w3.org/2000/svg">
<path d="M8.76018 22.75H15.2402C17.1302 22.75 18.5102 21.96 19.0402 20.6C19.5902 19.18 19.0802 17.42 17.7602 16.23L13.1202 12L17.7602 7.77C19.0802 6.58 19.5902 4.82 19.0402 3.4C18.5102 2.03 17.1302 1.25 15.2402 1.25H8.76018C6.87018 1.25 5.49018 2.04 4.96018 3.4C4.41018 4.82 4.92018 6.58 6.24018 7.77L10.8802 12L6.23018 16.23C4.92018 17.42 4.40018 19.18 4.95018 20.6C5.49018 21.96 6.87018 22.75 8.76018 22.75ZM12.0002 13.01L16.7502 17.33C17.5902 18.1 17.9602 19.22 17.6402 20.05C17.3402 20.82 16.4902 21.25 15.2402 21.25H8.76018C7.51018 21.25 6.66018 20.83 6.36018 20.05C6.04018 19.22 6.40018 18.1 7.25018 17.33L12.0002 13.01ZM15.2402 2.75C16.4902 2.75 17.3402 3.17 17.6402 3.95C17.9602 4.78 17.6002 5.9 16.7502 6.67L12.0002 10.99L7.25018 6.67C6.41018 5.9 6.04018 4.78 6.36018 3.95C6.66018 3.18 7.51018 2.75 8.76018 2.75H15.2402Z" fill="#1B1B1B"/>
</svg>
