<svg width="56" height="56" viewBox="0 0 56 56" fill="none" xmlns="http://www.w3.org/2000/svg">
<path d="M21.0007 25.0833C17.454 25.0833 14.584 22.2133 14.584 18.6667C14.584 15.12 17.454 12.25 21.0007 12.25C24.5473 12.25 27.4173 15.12 27.4173 18.6667C27.4173 22.2133 24.5473 25.0833 21.0007 25.0833ZM21.0007 15.75C19.3907 15.75 18.084 17.0567 18.084 18.6667C18.084 20.2767 19.3907 21.5833 21.0007 21.5833C22.6107 21.5833 23.9173 20.2767 23.9173 18.6667C23.9173 17.0567 22.6107 15.75 21.0007 15.75Z" fill="#7F7F7F"/>
<path d="M34.9994 53.0832H20.9993C8.32935 53.0832 2.91602 47.6698 2.91602 34.9998V20.9998C2.91602 8.32984 8.32935 2.9165 20.9993 2.9165H30.3327C31.2894 2.9165 32.0827 3.70984 32.0827 4.6665C32.0827 5.62317 31.2894 6.4165 30.3327 6.4165H20.9993C10.2427 6.4165 6.41602 10.2432 6.41602 20.9998V34.9998C6.41602 45.7565 10.2427 49.5832 20.9993 49.5832H34.9994C45.756 49.5832 49.5827 45.7565 49.5827 34.9998V23.3332C49.5827 22.3765 50.376 21.5832 51.3327 21.5832C52.2894 21.5832 53.0827 22.3765 53.0827 23.3332V34.9998C53.0827 47.6698 47.6694 53.0832 34.9994 53.0832Z" fill="#7F7F7F"/>
<path d="M49.5833 13.4165H36.75C35.7933 13.4165 35 12.6232 35 11.6665C35 10.7098 35.7933 9.9165 36.75 9.9165H49.5833C50.54 9.9165 51.3333 10.7098 51.3333 11.6665C51.3333 12.6232 50.54 13.4165 49.5833 13.4165Z" fill="#7F7F7F"/>
<path d="M43.166 19.8333C42.2093 19.8333 41.416 19.04 41.416 18.0833V5.25C41.416 4.29333 42.2093 3.5 43.166 3.5C44.1227 3.5 44.916 4.29333 44.916 5.25V18.0833C44.916 19.04 44.1227 19.8333 43.166 19.8333Z" fill="#7F7F7F"/>
<path d="M6.23036 45.9666C5.67036 45.9666 5.11036 45.6866 4.78369 45.1966C4.24702 44.4033 4.45702 43.3066 5.25036 42.77L16.7537 35.0466C19.2737 33.3666 22.7504 33.5533 25.037 35.49L25.807 36.1666C26.9737 37.17 28.957 37.17 30.1004 36.1666L39.807 27.8366C42.3037 25.7133 46.177 25.7133 48.6737 27.8366L52.477 31.1033C53.2004 31.7333 53.2937 32.83 52.6637 33.5766C52.0337 34.3 50.937 34.3933 50.1904 33.7633L46.387 30.4966C45.2204 29.4933 43.237 29.4933 42.0937 30.4966L32.387 38.8266C29.9137 40.95 26.017 40.95 23.5204 38.8266L22.7504 38.15C21.677 37.24 19.9037 37.1466 18.7137 37.9633L7.23369 45.6866C6.90702 45.8733 6.55703 45.9666 6.23036 45.9666Z" fill="#7F7F7F"/>
</svg>
