<svg width="28" height="28" viewBox="0 0 28 28" fill="none" xmlns="http://www.w3.org/2000/svg">
<path d="M13.9993 14.875C10.301 14.875 7.29102 11.865 7.29102 8.16666C7.29102 4.46833 10.301 1.45833 13.9993 1.45833C17.6977 1.45833 20.7077 4.46833 20.7077 8.16666C20.7077 11.865 17.6977 14.875 13.9993 14.875ZM13.9993 3.20833C11.2693 3.20833 9.04102 5.43666 9.04102 8.16666C9.04102 10.8967 11.2693 13.125 13.9993 13.125C16.7293 13.125 18.9577 10.8967 18.9577 8.16666C18.9577 5.43666 16.7293 3.20833 13.9993 3.20833Z" fill="#121211"/>
<path d="M18.4568 26.5417C18.0135 26.5417 17.5935 26.3783 17.2901 26.075C16.9285 25.7133 16.7651 25.1883 16.8468 24.64L17.0685 23.065C17.1268 22.6567 17.3718 22.1783 17.6635 21.875L21.7935 17.745C23.4501 16.0884 24.9085 17.0334 25.6202 17.745C26.2268 18.3517 26.5418 19.005 26.5418 19.6583C26.5418 20.3233 26.2385 20.9416 25.6202 21.56L21.4901 25.69C21.1985 25.9817 20.7085 26.2267 20.3002 26.285L18.7251 26.5066C18.6318 26.53 18.5501 26.5417 18.4568 26.5417ZM23.6951 18.5733C23.4851 18.5733 23.2985 18.7134 23.0301 18.9817L18.9002 23.1117C18.8652 23.1467 18.8068 23.2633 18.8068 23.31L18.5968 24.7683L20.0551 24.5583C20.1018 24.5467 20.2185 24.4884 20.2535 24.4534L24.3835 20.3233C24.5702 20.1367 24.7918 19.8683 24.7918 19.6583C24.7918 19.4833 24.6518 19.2384 24.3835 18.9817C24.1035 18.7017 23.8935 18.5733 23.6951 18.5733Z" fill="#121211"/>
<path d="M24.4073 22.4233C24.3257 22.4233 24.244 22.4117 24.174 22.3883C22.634 21.9567 21.409 20.7317 20.9773 19.1917C20.849 18.725 21.1174 18.2467 21.584 18.1184C22.0507 17.99 22.529 18.2583 22.6573 18.725C22.9257 19.6816 23.684 20.44 24.6407 20.7083C25.1074 20.8367 25.3757 21.3266 25.2474 21.7816C25.1424 22.1666 24.7923 22.4233 24.4073 22.4233Z" fill="#121211"/>
<path d="M3.97852 26.5417C3.50018 26.5417 3.10352 26.145 3.10352 25.6667C3.10352 20.685 7.99188 16.625 14.0002 16.625C15.2719 16.625 16.5319 16.8117 17.7102 17.1617C18.1769 17.3017 18.4335 17.7917 18.2935 18.2467C18.1535 18.7134 17.6635 18.97 17.2085 18.83C16.1819 18.5267 15.1085 18.3633 14.0002 18.3633C8.96021 18.3633 4.85352 21.63 4.85352 25.655C4.85352 26.145 4.45685 26.5417 3.97852 26.5417Z" fill="#121211"/>
</svg>
