<svg width="42" height="40" viewBox="0 0 42 40" fill="none" xmlns="http://www.w3.org/2000/svg">
<path d="M21.9511 0.927052C21.6517 0.00574112 20.3483 0.00574017 20.0489 0.927051L15.8362 13.8926C15.7023 14.3046 15.3183 14.5836 14.8851 14.5836H1.25233C0.283607 14.5836 -0.119171 15.8232 0.664543 16.3926L11.6937 24.4058C12.0442 24.6604 12.1908 25.1118 12.057 25.5238L7.84421 38.4894C7.54486 39.4107 8.59934 40.1768 9.38305 39.6074L20.4122 31.5942C20.7627 31.3396 21.2373 31.3396 21.5878 31.5942L32.6169 39.6074C33.4007 40.1768 34.4551 39.4107 34.1558 38.4894L29.943 25.5238C29.8091 25.1118 29.9558 24.6604 30.3063 24.4058L41.3355 16.3926C42.1192 15.8232 41.7164 14.5836 40.7477 14.5836H27.1149C26.6817 14.5836 26.2977 14.3046 26.1638 13.8926L21.9511 0.927052Z" fill="#F8C12C"/>
</svg>
